/* XPM */
static char *result[] = {
/* columns rows colors chars-per-pixel */
"32 32 112 2 ",
"   c #56332D",
".  c #5F3932",
"X  c #643C34",
"o  c #683F37",
"O  c #693F38",
"+  c #6C413A",
"@  c #73463D",
"#  c #76483F",
"$  c #774840",
"%  c #7C4B42",
"&  c #775C59",
"*  c #7C5F5B",
"=  c #814F46",
"-  c #835047",
";  c #865249",
":  c #8C564C",
">  c #8F584E",
",  c #91594F",
"<  c #955C51",
"1  c #995E54",
"2  c #9D6156",
"3  c #A4655A",
"4  c #A7685C",
"5  c #AB6A5E",
"6  c #946B65",
"7  c #9C7069",
"8  c #937975",
"9  c #AE6C60",
"0  c #B16E62",
"q  c #A4746C",
"w  c #AB786F",
"e  c #B67164",
"r  c #B97366",
"t  c #BC7568",
"y  c #B47D74",
"u  c #C57A6D",
"i  c #CB7F71",
"p  c #A6827C",
"a  c #AB847E",
"s  c #CE8173",
"d  c #D18375",
"f  c #D88778",
"g  c #E28E7F",
"h  c #958583",
"j  c #9D8886",
"k  c #AF8680",
"l  c #A78D89",
"z  c #A98E8A",
"x  c #B68A83",
"c  c #B4938E",
"v  c #A39694",
"b  c #AC9996",
"n  c #B99590",
"m  c #B09B98",
"M  c #BA9F9B",
"N  c #AEA3A1",
"B  c #B2A4A3",
"V  c #B3ADAC",
"C  c #BBB0AE",
"Z  c #BFB2B0",
"A  c #C29088",
"S  c #E58F80",
"D  c #E69081",
"F  c #EE9585",
"G  c #F19887",
"H  c #F69B8A",
"J  c #C5A49F",
"K  c #FEA08E",
"L  c #FFA694",
"P  c #FFAC99",
"I  c #FFB29F",
"U  c #C9A6A1",
"Y  c #C8ADAA",
"T  c #C4B3B1",
"R  c #C1BAB9",
"E  c #CBBEBC",
"W  c #D4BAB6",
"Q  c #FFB5A1",
"!  c #FFBBA7",
"~  c #F6B4A9",
"^  c #FABDB4",
"/  c #D2C0BE",
"(  c #E2C0BB",
")  c #FFC8B3",
"_  c #FFCCBC",
"`  c #CAC4C4",
"'  c #D9C3C0",
"]  c #D4C8C7",
"[  c #D5CFCE",
"{  c #DFCCCA",
"}  c #D8D0CF",
"|  c #DCD2D1",
" . c #DCD8D7",
".. c #DFD9D8",
"X. c #F2C7C1",
"o. c #E4D5D3",
"O. c #E8D6D4",
"+. c #E3DAD9",
"@. c #ECDEDC",
"#. c #FFDCD2",
"$. c #FFDED8",
"%. c #E2E0DF",
"&. c #F6E2DF",
"*. c #E4E0E0",
"=. c #EAE3E2",
"-. c #ECE9E8",
";. c #F2E6E4",
":. c #F3ECEA",
">. c #FFF1EF",
",. c #F4F1F1",
"<. c #F9F3F2",
"1. c #FFFFFF",
/* pixels */
"X X X o X o X X X X X X X X X X X X . X o X X X X X X X X X X X ",
"X 5 5 9 5 2 o @ 9 5 : @ , p v R E M x 5 u s < X + % > 5 9 5 9 + ",
"X 0 r 0 r 5 % 5 P ! _ ' ,.1.1.1.1.1.1.:.#.P s X 9 3 2 9 r 0 r o ",
"o 1 r 0 r 0 + 5 ) _ <.1.1.1.1.1.1.1.1.1.1.:.n X 9 r 5 4 r 3 r $ ",
"@ 2 5 4 2 > o ; X.1.1.1.1.1.1.1.1.1.1.1.1.1.<.h : 4 5 3 9 5 9 + ",
"o % % % $ + X C 1.1.1.1.1.1.-.+.*.-.1.1.1.1.1.<.h @ % % % % % X ",
"; < % @ s S ~ 1.1.1.1.1...k 2 2 > : v -.1.1.1.1.<.q ; o ; < > < ",
"5 5 1 @ g G >.1.1.1.1.R 2 e r e 4 4 3 X [ 1.1.1.1.@.1 o 3 9 5 5 ",
"r r 3 $ u ( 1.1.1.1.| o 3 3 4 0 e 0 5 o & :.1.1.1.1.J o e r r r ",
"9 0 3 + 1 ,.1.1.1.<.6 o = 1 1 3 4 3 > o X c 1.1.1.1.+.+ 0 r 9 0 ",
"< 1 > o B 1.1.1.1./ @ X o % % ; - - + X X $ } 1.1.1.1.* < 2 1 < ",
"X ; : : [ 1.1.1.1.8 + + % % X   + % ; ; - % N 1.1.1.1.T : ; : o ",
"X 4 9 5 ,.1.1.1.>.9 1 , 1 : X . < 2 4 H S G + 1.1.1.1.o.9 e r + ",
"o 4 r 0 1.1.1.1.$.r e 5 2 , X + 0 9 9 G S L ; *.1.1.1.-.r S K + ",
"O 2 0 U 1.1.1.1.{ 0 e 0 3 , X o e r 5 5 e s > ` 1.1.1.1.e s D # ",
"+ < 1 M 1.1.1.1.M 2 3 1 1 ; X o 2 2 1 : > > % Z 1.1.1.1.2 2 2 + ",
"o # # b 1.1.1.1.m - ; @ @ % % % ; ; % @ + % ; E 1.1.1.1.% $ $ X ",
"X X o j 1.1.1.1./ > :   + ; 3 3 < < - o X < 3 O.1.1.1.1.X X X X ",
"5 9 2 @ 1.1.1.1.{ 2 <   : 4 0 r 9 5 3 O X 5 r ;.1.1.1.-.5 9 9 9 ",
"r r 4 @ :.1.1.1.:.3 < X < 2 3 9 0 9 3 o X 4 r 1.1.1.1. .e r r r ",
"5 5 2 + ] 1.1.1.1.a = o % : > 2 2 2 - X X , Y 1.1.1.1.C 4 9 4 5 ",
": 2 ; X N 1.1.1.1.E + X X $ # % % # X X X + } 1.1.1.1.8 , 2 > > ",
"+ F 3 < < ,.1.1.1.<.7 @ - = X @ r d 1 , : z 1.1.1.1.@.g g i 2 @ ",
"o Q u 0 e W 1.1.1.1.&.1 2 , X , L Q r 5 9 :.1.1.1.1.^ I I H r + ",
"o 3 r 9 r 5 ,.1.1.1.1.o.3 , X : H f 0 5 o.1.1.1.1.&.4 9 r 9 r + ",
"+ 1 9 4 5 2 h 1.1.1.1.1.+.a X o 0 0 x -.1.1.1.1.<.y 9 2 9 2 9 $ ",
"+ : , : : % o C 1.1.1.1.1.1.-.*.=.:.1.1.1.1.1.<.j > 2 > < < < o ",
"o X o + - - % % Z 1.1.1.1.1.1.1.1.1.1.1.1.1.<.l ; ; $ . X . X X ",
"1 2 ; $ 0 < < 5 5 M ,.1.1.1.1.1.1.1.1.1.1.=.A r r r 1 X < 2 < 2 ",
"r r 4 $ r 1 < e r 3 q R ,.1.1.1.1.1.1.%.V 9 r r r r 2 o r r r t ",
"r e 4 @ 9 e e 9 0 3 , o < p M / W U w .   5 e e 0 e - + r r r r ",
"4 5 2 . + < : ; , 1 @ X X : > , , : X X . % < 1 1 ; X + 4 e 2 4 "
};
