/* XPM */
static char *result[] = {
/* columns rows colors chars-per-pixel */
"32 32 7 1 ",
"  c #343535",
". c #333A3B",
"X c #3A3B3B",
"o c #484A4A",
"O c #575959",
"+ c #00BCD4",
"@ c gray97",
/* pixels */
"+++++++++++++ XXXXoo +++++++++++",
"+++++++++++XXXX   o   ++++++++++",
"++++++++++   XXX XXX XXXX+++++++",
"++++++++Xo  oXXXXXXXXXXXXo.+++++",
"++++++XXXo   XXooooXXX   oX  +++",
"++++ XXXoooX XXXooXXXX   XXXO  +",
"+++ oooXXXXXX@@@@@@@XXX XXXXoX +",
"++  XoOXXXXX@@XXXXX@@XXXXXXXoo +",
"++XXXXXXX X@@XXXXXXX@@XXXXXXoX +",
"+ XXXXXXX @@XXXXX  XX@@XXXXXXX  ",
"  XXXXXX @@XXXXXXo XXX@@XXXXXXX ",
"  XXXXXX @@oXXXXoo XXX@@XXXXXXXX",
"  XXXXXX @@oXXXXo XXXX@@XXXXX XX",
" XXXXXXXX@@XXXXX  XXXo@@XXXX   X",
"XXXXXXXX@@XoXXXX XXXXoo@@XXX  XX",
"XXXXXXXX@@OOXXXX XXXooo@@XX   XX",
"XXXXXXXX@@OOOXXXXXXXXOO@@XXX  XX",
"XXXXXXXX@@OOXXXXXXXXXXO@@XXXXXXX",
"XXXXXXXX@@XOXXXXXXXXXXX@@XXXXXXX",
"XXXXXoXX@@XOXXXXXXXXXXX@@XX XXXX",
"XXXXXOXX@@@oXXXXXXXXXX@@@XX XXXX",
"XXXXoOXXX@@XXXXXXXXXXX@@XX  XXXX",
"XXXXOOXXX@@ XXXXXXXXXX@@XX  XXXX",
"XXXXOOXXX @@XXXXXXXXX@@XXo  XXXX",
"XXXXOoXXX X@@XXXXXXX@@XXX   XXXX",
"XXXXoXXXXXXX@@XXXXX@@XXXX   XXXX",
"oXXXoXXXXXXXX@@@@@@@XXXXXX XXXXX",
" oXXXXXXXXXXXXXX  XXXXXXXXXXXXX ",
" oXXXXXXXXXXXXXX  XXXXXXXXXXXXX ",
"  oXXXXXXXXXXXXoo  XXXXXXXXXXX  ",
"   oXXXXXXXXXXoo   XXXXXXXXXX   ",
"    XXXXXXXXXoo    XXXXXXXXXX   "
};
