/* XPM */
static char *result[] = {
/* columns rows colors chars-per-pixel */
"32 32 7 1 ",
"  c #343535",
". c #333A3B",
"X c #3A3B3B",
"o c #484A4A",
"O c #575959",
"+ c #00BCD4",
"@ c white",
/* pixels */
"+++++++++++++ XXXXoo +++++++++++",
"+++++++++++XXXX   o   ++++++++++",
"++++++++++   XXX XXX XXXX+++++++",
"++++++++Xo  oXXXXXXXXXXXXo.+++++",
"++++++XXXo   XX@@@@XXX   oX  +++",
"++++ XXXoooX X@@@@@XXX   XXXO  +",
"+++ oooXXXXXX@@@@@@XXXX XXXXoX +",
"++  XoOXXXXX@@@@@@@XXXXXXXXXoo +",
"++XXXXXXX X@@@@@@@@XXXXXXXXXoX +",
"+ XXXXXXX @@@@@X@@@XXXXXXXXXXX  ",
"  XXXXXX @@@@@XX@@@XXXXXXXXXXXX ",
"  XXXXXX@@@@@XXX@@@XXXXXXXXXXXXX",
"  XXXXX@@@@oXXXX@@@XXXXXXXXXX XX",
" XXXXXX@@@OXXXXX@@@XXoXOXXXX   X",
"XXXXXXX@@XOoXXXX@@@XXoooXXXX  XX",
"XXXXXXXXXXOOXXXX@@@XooooXXX   XX",
"XXXXXXXXXXOOOXXX@@@XXOOOXXXX  XX",
"XXXXXXXXXX OXXXX@@@XXXOOXXXXXXXX",
"XXXXXXXXXXOOXXXX@@@XXXXOXXXXXXXX",
"XXXXXoXXXXOOXXXX@@@XXXXOXXX XXXX",
"XXXXXOXXXXOoXXXX@@@XXXOOXXX XXXX",
"XXXXoOXXXXoXXXXX@@@XXXOoXX  XXXX",
"XXXXOOXXX o XXXX@@@XXXoXXX  XXXX",
"XXXXOOXXX   XXXX@@@XXXXXXo  XXXX",
"XXXXOoXXX XXXXXX@@@XXXXXX   XXXX",
"XXXXoXXXXXXXXXXX@@@XXXXXX   XXXX",
"oXXXoXXXXXXXXXXX@@@XXXXXXX XXXXX",
" oXXXXXXXXXXXXXX  XXXXXXXXXXXXX ",
" oXXXXXXXXXXXXXX  XXXXXXXXXXXXX ",
"  oXXXXXXXXXXXXoo  XXXXXXXXXXX  ",
"   oXXXXXXXXXXoo   XXXXXXXXXX   ",
"    XXXXXXXXXoo    XXXXXXXXXX   "
};
