/* XPM */
static char *result[] = {
/* columns rows colors chars-per-pixel */
"32 32 71 1 ",
"  c #55322C",
". c #59352E",
"X c #5F3932",
"o c #643C34",
"O c #683F37",
"+ c #693F38",
"@ c #6C413A",
"# c #73463D",
"$ c #76483F",
"% c #774840",
"& c #7C4B43",
"* c #814F46",
"= c #835047",
"- c #865249",
"; c #8B564C",
": c #8F584E",
"> c #91594F",
", c #955C51",
"< c #995E54",
"1 c #9D6156",
"2 c #A4655A",
"3 c #A7685C",
"4 c #AB6A5E",
"5 c #AE6C60",
"6 c #B26E62",
"7 c #A9776F",
"8 c #B67164",
"9 c #B97366",
"0 c #BD7669",
"q c #AE7A71",
"w c #C0776A",
"e c #C47A6D",
"r c #CA7E70",
"t c #CE8173",
"y c #D08274",
"u c #DC8A7B",
"i c #E28E7F",
"p c #958583",
"a c #AD908C",
"s c #AA9896",
"d c #B99590",
"f c #B99F9B",
"g c #E58F80",
"h c #E69081",
"j c #EC9484",
"k c #F19787",
"l c #F19887",
"z c #F59A89",
"x c #F99D8C",
"c c #C1A29D",
"v c #FEA08E",
"b c #FFA492",
"n c #FFA896",
"m c #FFAB99",
"M c #CBA6A1",
"N c #CCB7B4",
"B c #C2BAB9",
"V c #FFB4A1",
"C c #FFBAA6",
"Z c #FFBCA8",
"A c #D3C1BF",
"S c #FFC8B3",
"D c #DDCCC9",
"F c #E2E0DF",
"G c #E4E0E0",
"H c #EBE3E2",
"J c #F4E6E4",
"K c #FBE9E7",
"L c #FFEAE8",
"P c #F5F1F1",
"I c #FFFFFF",
/* pixels */
"oooOoOooooooooooXooooooooooooXoo",
"o44541O#54;#>:pGGHHDrt,o@&:4555+",
"o69684&4mZS52aIIIIIJZmro5315969+",
"O<9696@4SVt8NPIIIIIHee2o5843928&",
"#1332;O-j0MHIIIIIIIG<,*o;242545@",
"+&&&$@o@aPIIIIIIIIIF#  OX#*&&&&o",
"-,&#tgl8fIIIIIAIIIIFo*,1,<;o;,:,",
"44,%izbtMIIIPM8IIIIGo28809<o2544",
"892%erywMIPB724IIIIGo59uuC4O6999",
"663@,432qd;O-,,IIIIGo15jhj;@6956",
",,;O$-&**;#o+&&IIIIFo&-65;O@,1,,",
"o;;;%%.OO$#O&%oIIIIG=&OoO#&-;;;O",
"o343*-+en4<:,;oIIIILiz#o-#,3580@",
"O39631$zm9842,oIIIIKib=o2>259gb@",
"+<6652+we6852,oIIIIH8t;o24438yg#",
"#><<,=O&,121,;oIIIIH;:&o-,1,1,1@",
"O$$&;;,&*;-@#&&IIIIG@&=;6r;&%&%o",
"ooO#zxx2<;; O-3IIIIGo,30bn<ooooo",
"451$mCb862< ;46IIIIGo49rvx3O5555",
"892$9j9862,X,22IIIIGo48868;+6998",
"441+;21<1<*O&;;IIIIGo:321<#@4635",
";2=oO&$$*-@oO$$IIIIGo@&&&%O#,,;;",
"#l2,,;O&<4>$=*oIIIIH:-+o-0eggr1%",
"oVe683$0hkt<1>oIIIIH53%o6mxmVx8@",
"O29684$0ezu82>oIIIIH68-o9h25858#",
"@,4441O;16851,oIIIIH23;o1551525%",
"#>;:;&O#;fIIIIIIIIIIIIIIG;<,>,,o",
"ooOO&*=&&sIIIIIIIIIIIIIIG-%ooooo",
",1;%81,34fIIIIIIIIIIIIIIH9,o,1<1",
"992%8<,69cIIIIIIIIIIIIIIJ91O8990",
"883#588662>O>,,5652X 58868=@8999",
"351oO,;-,,#oo;;>>;ooX&<<,;o@3622"
};
