/* XPM */
static char *result[] = {
/* columns rows colors chars-per-pixel */
"32 32 7 1 ",
"  c #343535",
". c #333A3B",
"X c #3A3B3B",
"o c #484A4A",
"O c #575959",
"+ c #00BCD4",
"@ c gray99",
/* pixels */
"+++++++++++++ XXXXoo +++++++++++",
"+++++++++++XXXX   o   ++++++++++",
"++++++++++   XXX XXX XXXX+++++++",
"++++++++Xo  oXXXXXXXXXXXXo.+++++",
"++++++XXXo   XXooooXXX   oX  +++",
"++++ XXXoooX @@@@@@@XX   XXXO  +",
"+++ oooXXXX@@@@@@@@@@@X XXXXoX +",
"++  XoOXXX@@@@@XXXX@@@XXXXXXoo +",
"++XXXXXXX@@@@XXXXXXX@@@XXXXXoX +",
"+ XXXXXXX@@XXXXXX  XX@@XXXXXXX  ",
"  XXXXXX @@XXXXXXo XX@@XXXXXXXX ",
"  XXXXXX @@XXXXXoo XX@@XXXXXXXXX",
"  XXXXXX @@XXXXXo XXX@@XXXXXX XX",
" XXXXXXXXXXXXXXX  XXX@@XXXXX   X",
"XXXXXXXXXXXoXXXX XX@@@@XXXXX  XX",
"XXXXXXXXXXXOXXXX X@@@@ooXXX   XX",
"XXXXXXXXXXXOOXXXX@@@@OOXXXXX  XX",
"XXXXXXXXXXXOXXX@@@@@XXOXXXXXXXXX",
"XXXXXXXXXXXOXX@@@@XXXXXXXXXXXXXX",
"XXXXXoXXXXXO@@@@@XXXXXXXXXX XXXX",
"XXXXXOXXXXX@@@@@XXXXXXXXXXX XXXX",
"XXXXoOXXXXX@@@XXXXXXXXXXXX  XXXX",
"XXXXOOXXXX@@@XXXXXXXXXXXXX  XXXX",
"XXXXOOXXX@@@XXXXXXXXXXXXXo  XXXX",
"XXXXOoXX@@@@@@@@@@@@@@@XX   XXXX",
"XXXXoXXX@@@@@@@@@@@@@@@@X   XXXX",
"oXXXoXXXXXXXXXXXXXXXXXXXXX XXXXX",
" oXXXXXXXXXXXXXX  XXXXXXXXXXXXX ",
" oXXXXXXXXXXXXXX  XXXXXXXXXXXXX ",
"  oXXXXXXXXXXXXoo  XXXXXXXXXXX  ",
"   oXXXXXXXXXXoo   XXXXXXXXXX   ",
"    XXXXXXXXXoo    XXXXXXXXXX   "
};
