/* XPM */
static char *result[] = {
/* columns rows colors chars-per-pixel */
"32 32 94 2 ",
"   c #56342D",
".  c #59352E",
"X  c #5F3932",
"o  c #643C34",
"O  c #683F37",
"+  c #693F38",
"@  c #6C4139",
"#  c #73463E",
"$  c #76483F",
"%  c #774840",
"&  c #7C4B42",
"*  c #814F46",
"=  c #835047",
"-  c #865249",
";  c #8B554C",
":  c #8F584E",
">  c #91594F",
",  c #955C51",
"<  c #995E54",
"1  c #87645F",
"2  c #9D6156",
"3  c #A4655A",
"4  c #A7685C",
"5  c #AB6A5E",
"6  c #8C6761",
"7  c #8A7471",
"8  c #AE6C60",
"9  c #B16E62",
"0  c #A0726A",
"q  c #A8766E",
"w  c #B67164",
"e  c #B97366",
"r  c #BC7668",
"t  c #B37C73",
"y  c #B97F76",
"u  c #C3796C",
"i  c #CA7F71",
"p  c #CF8274",
"a  c #D18374",
"s  c #D88778",
"d  c #E28E7E",
"f  c #958583",
"g  c #9C9391",
"h  c #A58C89",
"j  c #AC8F8B",
"k  c #BD8D85",
"l  c #B3928E",
"z  c #A29593",
"x  c #AE9A97",
"c  c #AF9A98",
"v  c #BA9690",
"b  c #BB9F9C",
"n  c #BDA09C",
"m  c #ADA2A1",
"M  c #B7AFAE",
"N  c #BCB1AF",
"B  c #BEB1B0",
"V  c #CF968D",
"C  c #D59A90",
"Z  c #E58F80",
"A  c #E69081",
"S  c #EF9686",
"D  c #F19887",
"F  c #F99D8C",
"G  c #C1A29E",
"H  c #FEA08E",
"J  c #FFA492",
"K  c #FFA896",
"L  c #FFAB99",
"P  c #CBA7A1",
"I  c #C1BAB9",
"U  c #CBBEBC",
"Y  c #FFB5A1",
"T  c #FFBAA6",
"R  c #D2C7C6",
"E  c #D8C3C0",
"W  c #D7C9C7",
"Q  c #D5CFCE",
"!  c #E3D4D3",
"~  c #EDD8D5",
"^  c #FFDCD0",
"/  c #FADEDA",
"(  c #FFE0D6",
")  c #FFE2DD",
"_  c #E4E0E0",
"`  c #EBE3E2",
"'  c #EDE9E9",
"]  c #FBE9E7",
"[  c #F1EBEA",
"{  c #FCEFED",
"}  c #FFF0EC",
"|  c #F4F1F1",
" . c #FEF6F4",
".. c #FFFFFF",
/* pixels */
"o o O o O o o o o o o o o o o o o o o o X X o o o X o o o X o o ",
"o 5 5 8 5 2 O # 8 5 ; # l U Q _ _ _ ! E V p 2 X @ & : 4 8 8 8 @ ",
"o 9 e 8 e 5 & 5 L T ( [ ..................) C o 8 4 2 w e 9 e O ",
"O < e 9 e 9 @ 5 ^  ......................... .f 8 e 5 3 e 3 e % ",
"# 2 4 3 2 ; O R .............................. .j 3 8 3 8 4 8 @ ",
"+ & & & & @ Q ............Q I z x U ! .........._ # & & & & & O ",
"- , & % p Z / ........B 6 2 2 < ; ; + I ..........b - O - , ; < ",
"3 8 < & s D J ~ .. .l O 2 e e w 4 4 2 O _ ........W < O 3 8 5 5 ",
"e e 3 % u i a r ! v < o 3 4 4 9 e 9 8 O m ........} 5 O w e e e ",
"9 9 3 @ < 5 4 4 4 3 ; o = < > 4 3 3 ; o z ........] ; @ 9 e 8 8 ",
", < ; + # - & * * ; # o + & & * - = @ o z ........` + @ > 2 < , ",
"o ; ; ; # & . + + $ # + & & o   @ & - - U ........Q & - ; ; ; O ",
"o 5 5 5 & - + u K 5 < : < ; o o , 2 4 K  .........N , 5 8 e r @ ",
"O 3 e 9 3 2 % D L r w 5 2 > o + 9 8 t { ........| > 3 5 e d H @ ",
"@ 2 9 8 9 3 @ u u w e 9 3 > o + e P | ..........G 5 5 3 w p A # ",
"@ , < < , - o & > 2 2 2 < ; o z _ ............M = < 2 , 2 < 2 @ ",
"@ $ # & - ; < & - - - @ # B ' ............| c ; 9 i ; % % & % o ",
"X X @ # F F F 2 2 ; ; g | ............ .B 0 4 e K K 2 o o o o o ",
"5 8 2 $ K T K e 9 q W ..............! 7 o 5 e u H F 3 O 5 8 8 8 ",
"e e 3 # e S e w y ' ............! k 4 o o 4 e e 9 e ; + w e e e ",
"5 5 2 @ : 2 2 2 ` ..........' l 2 2 = o o > 3 4 3 < # @ 4 9 4 5 ",
"; 2 - o o & % B ..........Q 1 & & % o o o @ * & & % O # > < ; ; ",
"@ D 3 < , ; @  .........' * o # w a < > : ; O o = r u Z Z i 3 % ",
"O Y u 8 w 3 B ..........n > o > K Y e 5 5 5 # o w L F L Y D e @ ",
"O 3 e 5 e 5 Q ........| 3 , o ; F s 8 5 9 e ; o e Z 3 8 e 5 e @ ",
"@ < w 3 5 2 | ........` 2 , o + 9 8 4 2 3 3 ; o 2 5 5 2 9 3 8 % ",
"@ > : ; ; % ......................................_ < : > > < o ",
"o o O @ * h ......................................_ % O o o o o ",
"< 2 - % w n ......................................` < o < 2 < 2 ",
"e e 4 $ w b ......................................` 2 O e e e e ",
"e e 3 # 8 e w w 9 4 > O > , , 8 9 8 3 X   3 w e w w = @ e e e e ",
"3 5 2 o @ , - = > < # o o ; ; > > ; o o X & < < < - o @ 4 8 3 3 "
};
