/* XPM */
static char *result[] = {
/* columns rows colors chars-per-pixel */
"32 32 109 2 ",
"   c #56332D",
".  c #59352E",
"X  c #5F3932",
"o  c #643C34",
"O  c #683F37",
"+  c #693F38",
"@  c #6C4139",
"#  c #73463E",
"$  c #76483F",
"%  c #774840",
"&  c #7B4B42",
"*  c #775C59",
"=  c #7A5E5A",
"-  c #814F46",
";  c #835047",
":  c #865248",
">  c #8C564C",
",  c #8F584E",
"<  c #91594F",
"1  c #955C51",
"2  c #995E54",
"3  c #9D6156",
"4  c #A4655A",
"5  c #A7685C",
"6  c #AB6A5E",
"7  c #8E6862",
"8  c #877370",
"9  c #8E7673",
"0  c #AF6D60",
"q  c #B16E62",
"w  c #A8766E",
"e  c #B67164",
"r  c #B97366",
"t  c #BC7568",
"y  c #B77F75",
"u  c #C37A6C",
"i  c #CB7F71",
"p  c #A4807B",
"a  c #CE8173",
"s  c #D18374",
"d  c #D88778",
"f  c #E28D7E",
"g  c #958583",
"h  c #988784",
"j  c #9C9391",
"k  c #A08A87",
"l  c #B28781",
"z  c #B98B84",
"x  c #A49694",
"c  c #AB9996",
"v  c #B99590",
"b  c #BF9892",
"n  c #B19B98",
"m  c #B99F9B",
"M  c #BFA19D",
"N  c #AEA3A1",
"B  c #B5AEAD",
"V  c #B9AFAE",
"C  c #DF9689",
"Z  c #C39A94",
"A  c #E58F80",
"S  c #EF9686",
"D  c #F19887",
"F  c #F59A8A",
"G  c #F99D8C",
"H  c #F2A193",
"J  c #FFA593",
"K  c #FFA896",
"L  c #FFAB99",
"P  c #FFB29F",
"I  c #C7A5A0",
"U  c #CBA7A1",
"Y  c #CAAFAB",
"T  c #C2B3B1",
"R  c #CAB6B4",
"E  c #CFB8B5",
"W  c #C4BBBA",
"Q  c #CEBFBD",
"!  c #D7BBB8",
"~  c #EAADA4",
"^  c #FFB4A2",
"/  c #FFB8A5",
"(  c #FFBCA8",
")  c #D3C1BE",
"_  c #E3C0BC",
"`  c #D3C5C3",
"'  c #D9C3C0",
"]  c #D4C8C6",
"[  c #D8CAC8",
"{  c #D7D0CF",
"}  c #D9D0CF",
"|  c #DAD7D7",
" . c #E0C6C3",
".. c #E6C9C5",
"X. c #FCCCC5",
"o. c #E8D6D4",
"O. c #E4DBD9",
"+. c #ECDDDC",
"@. c #FFD7D0",
"#. c #FFDED6",
"$. c #FFE0D8",
"%. c #E4E0E0",
"&. c #EBE3E2",
"*. c #ECE9E9",
"=. c #F6E7E5",
"-. c #FDEFED",
";. c #F4F1F0",
":. c #FAF4F3",
">. c #FFFFFF",
/* pixels */
"o o O o O o o o o o o o o o o o o X o o o o o o o o o o o X o o ",
"o 6 6 0 6 3 O # 6 6 > c Q O.%.O.%.) Y 0 u a 2 o @ & , 6 0 0 0 @ ",
"o q r 0 r 6 & 6 ^ #.>.>.>.>.>.>.>.>.>.:.$.^ a o 0 4 3 q r q r O ",
"O 2 r q r 0 # Y >.>.>.>.>.>.>.>.>.>.>.>.>.;.v o 0 r 6 4 r 4 r % ",
"# 3 6 5 3 > V >.>.>.>.>.>.>.>.>.>.>.>.>.>.>.:.g > 4 0 4 0 6 0 @ ",
"O & & & % 9 >.>.>.>.>.;.` c g 8 c ` :.>.>.>.>.*.X # & & & & & o ",
": 1 & # a A X.>.>.>.] = & 3 3 2 > > h :.>.>.>.>.R 2 : O > 1 > 2 ",
"6 6 2 # f D J _ >.` 2 o 3 r e r 5 5 3 x >.>.>.>.+.r 2 o 4 6 6 0 ",
"r r 4 # u i s u ! 4 2 o 3 5 6 q r q 6 O ;.>.>.>.=.( 6 O q r r r ",
"q q 5 @ 2 5 4 4 5 4 > o - 2 2 4 5 4 > O %.>.>.>.=.S > @ q r q q ",
"1 1 > O # > & - - > # o O & & ; : - @ * >.>.>.>.O.> O O 1 3 2 1 ",
"o > > > # & . O O # # O & & O   @ & : } >.>.>.>.V # & > > > > O ",
"o 5 6 5 - : O u K 6 2 , 2 > o X 1 M &.>.>.>.>.*.> # 1 5 0 q t @ ",
"O 5 r q 5 3 % F L t e ' ) Q W %.:.>.>.>.>.>.*.* 4 < 4 6 r A J @ ",
"+ 4 q 6 0 4 + u u q r >.>.>.>.>.>.>.>.>.:...> o 4 6 6 5 q a A # ",
"@ 1 2 2 1 ; o & 1 3 3 >.>.>.>.>.>.>.>.:.] p & o ; 1 3 2 3 2 3 @ ",
"O $ $ & > > 1 & ; : ; >.>.>.>.>.>.>.>.>.>.>.Q : q i > % & % % o ",
"o o o # F G G 4 3 > > j x n E ) O.:.>.>.>.>.>.o.J K 3 o o o o o ",
"6 q 3 $ K / J e q 3 2   , 5 e e 0 0 E :.>.>.>.>.X.F 4 o 6 0 0 0 ",
"r r 4 # r S t e q 4 1 X 2 4 4 0 0 0 5 = ;.>.>.>.:.r > @ r r r r ",
"5 6 3 @ > 4 2 2 3 3 & O & > > 3 3 3 ; o V >.>.>.>.v # @ 5 0 5 6 ",
"> 4 ; o O & $ $ 7 : @ o o & % & & % o o * >.>.>.>.W O % , 3 > > ",
"# D 4 < 2 > O | R 6 < $ ; & o # e a 3 , p >.>.>.>. .u d A i 3 & ",
"o ^ u q q 5 V >.:.H a 2 3 , o 1 K ^ r 6 ' >.>.>.>.@.G P ^ D r @ ",
"O 4 r q r z >.>.>.-.C r 3 1 o > F d e b :.>.>.>.>.~ 4 0 r 6 r # ",
"@ 2 6 5 6 3 ;.>.>.>.:.' w 1 o O q y ` :.>.>.>.>.&.6 6 3 0 4 0 # ",
"@ < < , > & N >.>.>.>.>.>.*.%.%.*.>.>.>.>.>.>.>.k > 2 1 < 1 1 o ",
"o o o @ - ; & { >.>.>.>.>.>.>.>.>.>.>.>.>.>.>.T : : % o o o o o ",
"2 3 > % q 2 1 5 ` :.>.>.>.>.>.>.>.>.>.>.>.:.Z r r r 2 o 2 3 2 3 ",
"r r 4 # r 2 1 q r l [ ;.>.>.>.>.>.>.>.| B 0 r r r r 2 O e r r r ",
"r r 5 # 0 r r q 0 4 < o p m m I U Z 4 X   5 q r e r ; @ r r r r ",
"4 6 3 o O < > : 1 2 # o O > > < , > o o X & 2 2 2 ; o @ 5 q 4 4 "
};
