/* XPM */
static char *result[] = {
/* columns rows colors chars-per-pixel */
"32 32 9 1 ",
"  c #343535",
". c #333A3B",
"X c #3A3B3B",
"o c #484A4A",
"O c #575959",
"+ c #00BCD4",
"@ c #F4F7F7",
"# c gray99",
"$ c None",
/* pixels */
"+++++++++++++ XXXXoo +++++++++++",
"+++++++++++XXXX   o   ++++++++++",
"++++++++++   XXX XXX XXXX+++++++",
"++++++++Xo  oXXXXXXXXXXXXo.+++++",
"++++++XXXo   XXooooXXX   oX  +++",
"++++ XXXoooX XXXXXXXXX   XXXO  +",
"+++ oooXXXXX#######XXXX XXXXoX +",
"++  XoOXXX####XXXX##XXXXXXXXoo +",
"++XXXXXXX###XXXXXXX##XXXXXXXoX +",
"+ XXXXXXX##XXXXXX  X##XXXXXXXX  ",
"  XXXXXX XXXXXXXXo X###XXXXXXXX ",
"  XXXXXX XXXXXXXoo XX##XXXXXXXXX",
"  XXXXXX XXXXXXXo XXX##XXXXXX XX",
" XXXXXXXXXXXXXXX  XXX##XXXXX   X",
"XXXXXXXXXXXoXXXX XXX##XXXXXX  XX",
"XXXXXXXXXXXOXXXX XX##XooXXX   XX",
"XXXXXXXXXXX#########XOOXXXXX  XX",
"XXXXXXXXXXX###########OXXXXXXXXX",
"XXXXXXXXXXXOXXXXXXXX@##XXXXXXXXX",
"XXXXXoXXXXXOXXXXXXXXX###XXX XXXX",
"XXXXXOXXXXXoXXXXXXXXXX##XXX XXXX",
"XXXXoOXXXXXXXXXXXXXXXX$#XX  XXXX",
"XXXXOOXXXXXXXXXXXXXXXX##XX  XXXX",
"XXXXOOXXX##XXXXXXXXXXX##Xo  XXXX",
"XXXXOoXXX##XXXXXXXXXX##XX   XXXX",
"XXXXoXXXX###XXXXXXXX##XXX   XXXX",
"oXXXoXXXXXX###XXX####XXXXX XXXXX",
" oXXXXXXXXXX#########XXXXXXXXXX ",
" oXXXXXXXXXXXXXX  XXXXXXXXXXXXX ",
"  oXXXXXXXXXXXXoo  XXXXXXXXXXX  ",
"   oXXXXXXXXXXoo   XXXXXXXXXX   ",
"    XXXXXXXXXoo    XXXXXXXXXX   "
};
