/* XPM */
static char *result[] = {
/* columns rows colors chars-per-pixel */
"32 32 7 1 ",
"  c #343535",
". c #333A3B",
"X c #3A3B3B",
"o c #484A4A",
"O c #575959",
"+ c #00BCD4",
"@ c #F5FAFA",
/* pixels */
"+++++++++++++ XXXXoo +++++++++++",
"+++++++++++XXXX   o   ++++++++++",
"++++++++++   XXX XXX XXXX+++++++",
"++++++++Xo  oXXXXXXXXXXXXo.+++++",
"++++++XXXo   XXooooXXX   oX  +++",
"++++ XXXoooX XXXXXXXXX   XXXO  +",
"+++ oooXXXXXXXXXXXXXXXX XXXXoX +",
"++  XoOXXXXXXXX@@@@XXXXXXXXXoo +",
"++XXXXXXXXXXXXX@@@@XXXXXXXXXoX +",
"+ XXXXXXXXXXXX@@@@@XXXXXXXXXXX  ",
"  XXXXXX XXXX@@@X@@XXXXXXXXXXXX ",
"  XXXXXX XXX@@@@o@@XXXXXXXXXXXXX",
"  XXXXXX XXX@@@Xo@@XXXXXXXXXX XX",
" XXXXXXXXXX@@@XX @@XXXXXXXXX   X",
"XXXXXXXXXX@@@XXX @@XXXXXXXXX  XX",
"XXXXXXXXX@@@XXXX @@XXXooXXX   XX",
"XXXXXXXXX@@@XXXXX@@XXOOXXXXX  XX",
"XXXXXXXX@@@XXXXXX@@XXXOXXXXXXXXX",
"XXXXXXXX@@@OXXXXX@@XXXXXXXXXXXXX",
"XXXXXoX@@@@@@@@@@@@@@@@@XXX XXXX",
"XXXXXOX@@@@@@@@@@@@@@@@@XXX XXXX",
"XXXXoOXXXXXXXXXXX@@XXXXXXX  XXXX",
"XXXXOOXXXXXXXXXXX@@XXXXXXX  XXXX",
"XXXXOOXXXXXXXXXXX@@XXXXXXo  XXXX",
"XXXXOoXXXXXXXXXXX@@XXXXXX   XXXX",
"XXXXoXXXXXXXXXXXX@@XXXXXX   XXXX",
"oXXXoXXXXXXXXXXXX@@XXXXXXX XXXXX",
" oXXXXXXXXXXXXXXX@@XXXXXXXXXXXX ",
" oXXXXXXXXXXXXXX  XXXXXXXXXXXXX ",
"  oXXXXXXXXXXXXoo  XXXXXXXXXXX  ",
"   oXXXXXXXXXXoo   XXXXXXXXXX   ",
"    XXXXXXXXXoo    XXXXXXXXXX   "
};
