/* XPM */
static char *result[] = {
/* columns rows colors chars-per-pixel */
"32 32 95 2 ",
"   c #56332D",
".  c #59352E",
"X  c #5F3932",
"o  c #643C34",
"O  c #683F37",
"+  c #693F38",
"@  c #6C4139",
"#  c #73463E",
"$  c #76483F",
"%  c #774840",
"&  c #7C4B43",
"*  c #6C5855",
"=  c #735B57",
"-  c #775D59",
";  c #814F46",
":  c #835047",
">  c #865249",
",  c #8B554B",
"<  c #8F584E",
"1  c #91594F",
"2  c #955C51",
"3  c #995E54",
"4  c #9D6156",
"5  c #A4655A",
"6  c #A7685C",
"7  c #AB6A5E",
"8  c #8A6660",
"9  c #877370",
"0  c #AE6C60",
"q  c #B26E62",
"w  c #B67164",
"e  c #B97366",
"r  c #BD7669",
"t  c #C0776A",
"y  c #C37A6C",
"u  c #CA7E70",
"i  c #AB847E",
"p  c #CE8173",
"a  c #D28375",
"s  c #DC8A7B",
"d  c #E28E7E",
"f  c #9C9391",
"g  c #A68D89",
"h  c #B4938E",
"j  c #A49694",
"k  c #AB9896",
"l  c #AF9A98",
"z  c #B39C99",
"x  c #B89E9A",
"c  c #BCA09C",
"v  c #C39A94",
"b  c #E58F80",
"n  c #E69081",
"m  c #EB9484",
"M  c #F19787",
"N  c #F19887",
"B  c #F59A89",
"V  c #F99C8C",
"C  c #C1A29E",
"Z  c #D0A099",
"A  c #FFA492",
"S  c #FFA896",
"D  c #FFAB99",
"F  c #FFB29F",
"G  c #CCA7A2",
"H  c #C1AAA7",
"J  c #CFA8A3",
"K  c #DCAEA8",
"L  c #CABDBC",
"P  c #D0B8B5",
"I  c #D7BBB8",
"U  c #DABDB9",
"Y  c #E3B2AB",
"T  c #FFB4A1",
"R  c #FFBBA7",
"E  c #FFBCA8",
"W  c #D0C0BE",
"Q  c #FFC1AC",
"!  c #FFC8B3",
"~  c #D1CDCD",
"^  c #DDD2D1",
"/  c #DDD8D7",
"(  c #E3C7C4",
")  c #E7C9C5",
"_  c #E0CDCA",
"`  c #FFCCC0",
"'  c #FFD8CF",
"]  c #E5D5D3",
"[  c #FCD8D4",
"{  c #E5E1E0",
"}  c #EBE3E2",
"|  c #EDE9E9",
" . c #F3EBEA",
".. c #F5F2F1",
"X. c #FFFFFF",
/* pixels */
"o o O o O o o o o o o o o o o o o o o o o o o o o o o o o o o o ",
"o 7 7 0 7 4 O # 0 7 , # 1 < o o & 2 5 W ( ) i o @ & 1 7 0 7 0 + ",
"o q w q w 7 & 7 D E ! 0 5 < o @ q q ] X.X.X.K o 7 6 3 q e q e O ",
"O 3 e q w 0 # 7 ! T p w 4 2 o @ e I X.X.X.X.x o 0 w 7 6 e 5 w & ",
"# 4 7 5 5 < O > m r q 0 5 2 o O v X.X.X.X.X.l o < 5 7 5 7 7 7 @ ",
"+ & & & $ @ o + > & ; & & # o - X.X.X.X.X.X.f o X # ; & ; & & O ",
"> 2 & % p d N w 2 > > O & 4 4  .X.X.X.X.X.X.x 5 1 3 , o , 2 1 1 ",
"7 7 2 $ d B A p 0 4 3 o 5 w ] X.X.X.X.X.X.X.G w r e 3 o 6 7 7 7 ",
"w e 5 $ y u a t e 5 2 o 5 P X.X.X.X...X.X.X.J s s R 6 + q e e e ",
"q q 6 @ 2 6 6 5 6 5 , o g X.X.X.X.C } X.X.X.C M n m , @ q e q q ",
"2 2 < O $ , & ; ; , # - ..X.X.X.L ; { X.X.X.z 0 0 < O + 1 4 2 2 ",
"o , , , $ % . O o $ # | X.X.X.~ O & { X.X.X.j o O # & > , , < + ",
"o 6 7 6 ; > + y S 7 ^ X.X.X.| = 1 5 } X.X.X.j o , $ 2 7 0 w r + ",
"o 6 e q 5 4 $ B D U X.X.X...9 + q q } X.X.X.z o 5 1 5 7 e b V # ",
"@ 3 q q q 5 + y Z X.X.X.X.H o O w w } X.X.X.x o 5 7 7 5 q a n $ ",
"# 1 3 3 2 > o 8 ..X.X.X.W , o O 5 4 } X.X.X.k o : 2 4 2 4 3 4 @ ",
"O $ $ $ > < 2 { X.X.X./ # & & & : , { X.X.X.l , q u < $ & $ & o ",
"o o O # B V [ X.X.X.| * + > 6 5 2 1 { X.X.X.C r A S 3 o o o o o ",
"7 q 4 $ S ' X.X.X.X.h   , 7 w w 7 7 } X.X.X.J u A V 5 O 7 q 7 q ",
"w e 5 # e X.X.X.X. .} { { } } } } } X.X.X.X. .} } _ < O w e w w ",
"7 7 4 @ < X.X.X.X.X.X.X.X.X.X.X.X.X.X.X.X.X.X.X.X.} $ + 7 q 6 6 ",
", 5 : o O X.X.X.X.X.X.X.X.X.X.X.X.X.X.X.X.X.X.X.X.{ O # 1 3 < < ",
"# N 5 1 2 X.X.X.X.X.X.X.X.X.X.X.X.X.X.X.X.X.X.X.X.} y d b u 3 % ",
"o T y q w 6 $ r n N p 3 3 1 o 2 A ` X.X.X.X.k o q S V F F B e @ ",
"O 5 e q w 7 $ t u B s w 5 1 o > B Y X.X.X.X.z o e b 5 0 e 7 w # ",
"@ 3 7 6 7 4 @ , 4 q q 7 5 2 o O q G X.X.X.X.x o 4 0 0 4 0 5 0 $ ",
"@ < < < , & O # , 2 3 1 2 , O O 3 c X.X.X.X.k O % < 2 < 2 2 2 o ",
"O o o @ ; : & & & $ $ o & 5 < q & k X.X.X.X.l > > > % o o o o o ",
"2 4 , % q 4 2 7 7 3 2 o w T a Q 4 c X.X.X.X.G e e e 2 o 2 4 3 5 ",
"r e 5 # w 2 2 w w 5 4 O w m e u q J X.X.X.X.J e e e 4 O q e e e ",
"w w 6 # 0 w w q q 5 1 O 1 2 2 7 q 0 5 X   7 w w w w > + w e e e ",
"6 7 4 o @ 2 > > 1 3 # o o , < 1 1 , o o X & 3 4 2 > o @ 6 q 5 5 "
};
