/* XPM */
static char *result[] = {
/* columns rows colors chars-per-pixel */
"32 32 7 1 ",
"  c #343535",
". c #333A3B",
"X c #3A3B3B",
"o c #484A4A",
"O c #575959",
"+ c #00BCD4",
"@ c white",
/* pixels */
"+++++++++++++ XXXXoo +++++++++++",
"+++++++++++XXXX   o   ++++++++++",
"++++++++++   XXX XXX XXXX+++++++",
"++++++++Xo  oXXXXXXXXXXXXo.+++++",
"++++++XXXo   XXooooXXX   oX  +++",
"++++ XXXoooX XXXXXXXXX   XXXO  +",
"+++ oooXXXXXXXXXXXXXXXX XXXXoX +",
"++  XoOXXXX@@@@@@@@@@XXXXXXXoo +",
"++XXXXXXXXX@@@@@@@@@@XXXXXXXoX +",
"+ XXXXXXXXX@@XXXXXXXXXXXXXXXXX  ",
"  XXXXXX XX@@XXXXXXXXXXXXXXXXXX ",
"  XXXXXX XX@@XXXoXXXXXXXXXXXXXXX",
"  XXXXXX XX@@XXXoXXXXXXXXXXXX XX",
" XXXXXXXXXX@@XXX XXXXXXXXXXX   X",
"XXXXXXXXXXX@@@@@@@@@@XXXXXXX  XX",
"XXXXXXXXXXX@@@@@@@@@@@ooXXX   XX",
"XXXXXXXXXXXXXXXXXXXX@@OXXXXX  XX",
"XXXXXXXXXXXXXXXXXXXXX@OXXXXXXXXX",
"XXXXXXXXXXXOXXXXXXXXX@@XXXXXXXXX",
"XXXXXoXXXXXXXXXXXXXXX@@XXXX XXXX",
"XXXXXOXXXXXXXXXXXXXXX@@XXXX XXXX",
"XXXXoOXXXXXXXXXXXXXXXX@XXX  XXXX",
"XXXXOOXXXXXXXXXXXXXXXX@XXX  XXXX",
"XXXXOOXXXX@XXXXXXXXXX@@XXo  XXXX",
"XXXXOoXXXX@XXXXXXXXX@@XXX   XXXX",
"XXXXoXXXXX@@XXXXXXXX@@XXX   XXXX",
"oXXXoXXXXXX@@@@@XX@@@@XXXX XXXXX",
" oXXXXXXXXXX@@@@@@@@@XXXXXXXXXX ",
" oXXXXXXXXXXXX@@@@@XXXXXXXXXXXX ",
"  oXXXXXXXXXXXXoo  XXXXXXXXXXX  ",
"   oXXXXXXXXXXoo   XXXXXXXXXX   ",
"    XXXXXXXXXoo    XXXXXXXXXX   "
};
