/* XPM */
static char *result[] = {
/* columns rows colors chars-per-pixel */
"32 32 110 2 ",
"   c #56332D",
".  c #59352E",
"X  c #5E3932",
"o  c #643C34",
"O  c #683F37",
"+  c #693F38",
"@  c #6C4139",
"#  c #73463E",
"$  c #76483F",
"%  c #774840",
"&  c #7B4B42",
"*  c #814F46",
"=  c #835047",
"-  c #865249",
";  c #8B564C",
":  c #8F584E",
">  c #91594F",
",  c #955B51",
"<  c #995E54",
"1  c #86645F",
"2  c #9D6156",
"3  c #A4655A",
"4  c #A7685C",
"5  c #AB6A5E",
"6  c #8D6762",
"7  c #936B64",
"8  c #877370",
"9  c #8D7673",
"0  c #947975",
"q  c #987B76",
"w  c #AF6C60",
"e  c #B16E62",
"r  c #AB786F",
"t  c #B67164",
"y  c #B97366",
"u  c #BC7568",
"i  c #AE7971",
"p  c #B37C73",
"a  c #C37A6C",
"s  c #CC7F71",
"d  c #CE8173",
"f  c #D18374",
"g  c #D88778",
"h  c #DC8A7B",
"j  c #E28D7E",
"k  c #928482",
"l  c #A08A87",
"z  c #B78A83",
"x  c #BC8C85",
"c  c #A59694",
"v  c #AD9997",
"b  c #BD9791",
"n  c #B59D99",
"m  c #BA9F9B",
"M  c #BFA19D",
"N  c #B9A7A5",
"B  c #BCA9A6",
"V  c #B5AEAD",
"C  c #B9AFAE",
"Z  c #CD8C80",
"A  c #CC958C",
"S  c #C79C96",
"D  c #E58F80",
"F  c #E69081",
"G  c #EC9484",
"H  c #F19887",
"J  c #F59A89",
"K  c #F99C8C",
"L  c #C5A49F",
"P  c #F7A496",
"I  c #FFA593",
"U  c #FFAB99",
"Y  c #FFB29F",
"T  c #CAA6A1",
"R  c #C1B2B0",
"E  c #C9B6B3",
"W  c #C2BAB9",
"Q  c #CCBEBC",
"!  c #D6BBB7",
"~  c #EBB6AE",
"^  c #FFB4A1",
"/  c #FFBAA6",
"(  c #FFBCA8",
")  c #D3C1BE",
"_  c #FFC8B3",
"`  c #CBC5C4",
"'  c #D8C3C0",
"]  c #D3C8C6",
"[  c #D2CECE",
"{  c #D8C9C8",
"}  c #DBD4D4",
"|  c #DDD8D7",
" . c #E3C7C4",
".. c #E7C9C5",
"X. c #F1CDC8",
"o. c #FFD1C9",
"O. c #ECDEDC",
"+. c #F2DAD7",
"@. c #E2E0DF",
"#. c #FFE2DD",
"$. c #E4E0E0",
"%. c #EBE3E2",
"&. c #EBE9E9",
"*. c #FCE4E1",
"=. c #F3ECEB",
"-. c #FFECE9",
";. c #FFF2EE",
":. c #F4F1F1",
">. c #FFF5F4",
",. c #FFFFFF",
/* pixels */
"o o o o O O o o O o o o o o o o o O o o o o o o o o o o o O o o ",
"o 5 5 w 5 2 o # 5 5 B W Q Q W W W Q ) )  ...Q W 9 & : 5 5 5 5 + ",
"o e t e t 5 & w U / ;.,.,.,.,.,.,.,.,.,.,.,.,.,.T 3 2 e u e y + ",
"O < u e y e @ 5 _ Y ,.,.,.,.,.,.,.,.,.,.,.,.,.,.L t 5 5 y 3 t & ",
"# 3 5 3 3 ; O - F L ,.,.,.,.,.,.,.,.,.,.,.,.,.,.n 3 5 3 5 5 5 @ ",
"o & & & $ @ o @ ; C ,.,.,.:.$.$.$.$.@.O.@.@.$.$.k $ * & * & & O ",
"- , & % d j H t , ] ,.,.,.) 3 < ; ; O X X & , 2 > < - O ; , ; , ",
"5 5 , % j J I d w %.,.,.,.T t t 5 5 2 O o 4 t t u y < o 4 5 5 5 ",
"t y 3 % a s f a e ,.,.,.,.i 4 t e e 5 O o w y j h ( 5 O e y y y ",
"e e 3 @ , 5 4 3 b ,.,.,.:.< , 3 5 3 : o o < 5 H F G ; @ e y e e ",
", , ; O # - & * R ,.,.,.| & & - - * @ o o $ - e w ; + @ , 2 , , ",
"o ; ; ; $ & . O ` ,.,.,.W & o k c v 7 - * * o o O # & - ; ; ; + ",
"o 5 w 5 & - + a -.,.,.,.E } :.,.,.,.,.>.X.P @ o - $ > 5 w t u @ ",
"o 5 y e 3 3 $ J ,.,.,.,.>.,.,.,.,.,.,.,.,.,.B o 3 > 3 5 y D K # ",
"+ < e w 5 3 + A ,.,.,.,.,.,.,.,.,.,.,.,.,.,.,.V 3 5 5 3 t f F $ ",
"# > < < , - o N ,.,.,.,.,.,.$.` ) %.,.,.,.,.,.,.N < 2 , 2 , 2 @ ",
"O $ $ & ; ; < W ,.,.,.,.| 0 & & - - q $.,.,.,.,.:.Z ; & $ & $ o ",
"o o o # J K K %.,.,.,.[ @ - 4 3 , , - O | ,.,.,.,.o.< o o o o o ",
"5 e 2 $ U / I S T M m   ; 4 e t w 5 3 O 8 ,.,.,.,.*.3 O 5 e 5 e ",
"t y 3 $ y G y t w 3 , X < 3 3 w e w 3 O o %.,.,.,.:.: @ t y t y ",
"5 5 2 O ; 3 2 < 2 2 & O & ; ; 2 2 2 = o o Q ,.,.,.,.# @ 5 e 3 5 ",
"; 3 - o O & $ $ = - @ o o & & & & & o o O W ,.,.,.,.O # > < : ; ",
"# H 3 > , ; @ & 2 p : % = & o # e f < > ; $.,.,.,.=.a j j s 3 $ ",
"o ^ a e t 4 # u +.*.d < 2 > o , I ^ u 5 x ,.,.,.,.#.K Y Y J y + ",
"O 3 y e t 5 1 O.,.,.+.t 3 > o - J g w 5 %.,.,.,.,.~ 3 w y 5 t # ",
"@ , 5 5 5 2 C ,.,.,.,.=.M , o O e e z %.,.,.,.,.%.5 5 2 e 3 w $ ",
"# > : ; ; & O | ,.,.,.,.,.:.[ W ) %.,.,.,.,.,.:.l ; < > , , , o ",
"o o o @ * = & 6 &.,.,.,.,.,.,.,.,.,.,.,.,.,.>.R - - % o o o o o ",
", 2 ; % e 2 , 4 p { ,.,.,.,.,.,.,.,.,.,.,.:.S y y y , o , 2 < 2 ",
"u y 3 $ t < , e u 2 l { >.,.,.,.,.,.,.&.V w y y y y 2 O e u u u ",
"t t 3 # w t t t w 3 , o > M m ' ! T r X   5 t t e t * @ t y t y ",
"3 w 2 o @ > ; - > < % o o - ; > : ; o o X & < 2 < - o # 3 e 3 3 "
};
