/* XPM */
static char *result[] = {
/* columns rows colors chars-per-pixel */
"32 32 106 2 ",
"   c #56332D",
".  c #5E3932",
"X  c #643C34",
"o  c #683F37",
"O  c #693F38",
"+  c #6C4139",
"@  c #73463E",
"#  c #76483F",
"$  c #774840",
"%  c #7B4B42",
"&  c #785D59",
"*  c #814E45",
"=  c #835047",
"-  c #865249",
";  c #8B564C",
":  c #8F584E",
">  c #91594F",
",  c #955C51",
"<  c #995E54",
"1  c #82625D",
"2  c #9D6156",
"3  c #A4655A",
"4  c #A7685C",
"5  c #AB6A5E",
"6  c #8B6761",
"7  c #9E7069",
"8  c #9F7E79",
"9  c #AF6D60",
"0  c #B16E62",
"q  c #A4746C",
"w  c #B67164",
"e  c #B97366",
"r  c #BC7568",
"t  c #B27C73",
"y  c #C57A6D",
"u  c #CC7F71",
"i  c #A5817C",
"p  c #AA837E",
"a  c #CF8274",
"s  c #D18374",
"d  c #D88778",
"f  c #E28D7E",
"g  c #8E8381",
"h  c #9C8986",
"j  c #AC8F8B",
"k  c #BC8D86",
"l  c #B6948F",
"z  c #A29593",
"x  c #AE9A97",
"c  c #BA9690",
"v  c #B29B99",
"b  c #BB9F9C",
"n  c #BDA09C",
"m  c #ADA2A1",
"M  c #BCA8A6",
"N  c #B7AFAE",
"B  c #BCB0AF",
"V  c #BEB1B0",
"C  c #BFB9B8",
"Z  c #D18E82",
"A  c #C69B95",
"S  c #CC9E98",
"D  c #E58F80",
"F  c #E69081",
"G  c #EC9484",
"H  c #F09787",
"J  c #F19887",
"K  c #F59A89",
"L  c #F89C8B",
"P  c #D8A49C",
"I  c #FFA593",
"U  c #FFAB99",
"Y  c #FFB29F",
"T  c #C7A5A0",
"R  c #C3ABA8",
"E  c #C8ADAA",
"W  c #C8B5B3",
"Q  c #CEB8B5",
"!  c #C2BAB9",
"~  c #CCBEBC",
"^  c #D3BAB6",
"/  c #DDBEBA",
"(  c #E5ABA2",
")  c #F9AEA2",
"_  c #FFB4A1",
"`  c #FFBAA6",
"'  c #D3C1BF",
"]  c #FFC8B3",
"[  c #CFC6C5",
"{  c #DCC5C1",
"}  c #D3CECE",
"|  c #D9D0CF",
" . c #DCD3D3",
".. c #DCD8D7",
"X. c #E0D3D1",
"o. c #EAD7D5",
"O. c #E2DAD9",
"+. c #EADDDB",
"@. c #FFD8D1",
"#. c #E6E1E0",
"$. c #ECE3E2",
"%. c #EDEAE9",
"&. c #FBE9E7",
"*. c #F4ECEB",
"=. c #F2F0F0",
"-. c #FFFEFE",
/* pixels */
"X X X o X o X X o X X X X X X X X X X X X X X X . X X X X . X X ",
"X 5 5 9 5 2 o @ 5 5 ; @ > i N ! ~ ~ ' T r a < X + % > 4 9 9 9 + ",
"X 0 e 0 w 5 % 5 U ` ] k  .-.-.-.-.-.-.-.-.@.Z . 9 4 2 0 r 0 w O ",
"o < e 0 e 0 + 5 ] Y / -.-.-.-.-.-.-.-.-.-.-.=.i 9 w 9 3 e 3 w % ",
"@ 3 5 3 3 ; o - D / -.-.-.-.-.-.-.-.-.-.-.-.-.-.j 3 5 3 9 5 9 + ",
"o % % % $ + X + 8 -.-.-.-.-.} m x x ! %.-.-.-.-.=.1 * % % % % X ",
"= , % $ a f J w +.-.-.-.-.l 3 < ; ; o . ! -.-.-.-.j - o ; , ; , ",
"4 5 , $ f K I P -.-.-.-.l 0 w w 5 5 2 o X c -.=.S e < X 3 9 5 9 ",
"w e 3 $ y u s X.-.-.-.! 3 3 4 w w w 5 o X 9 { ( d ` 5 o 0 e e e ",
"0 0 4 + , 5 4 -.-.-.-.& - , , 3 3 3 ; X X 2 5 J F H ; + 0 e 9 0 ",
", , ; o @ - x -.-.-.} X + % % = - = + o X # ; 5 5 ; O O , 2 , , ",
"X ; ; ; # % C -.-.-.B o % V ..=.-.-.#.| v % o X O @ % ; ; ; ; O ",
"X 4 5 5 * = ..-.-.-.b 8 *.-.-.-.-.-.-.-.-.&.h X ; @ , 5 9 w r + ",
"o 4 e 0 4 2 #.-.-.-.A -.-.-.-.-.-.-.-.-.-.-.-.N 3 > 3 5 e D L @ ",
"O 2 0 9 0 3 -.-.-.-.$.-.-.-.=.} ' +.-.-.-.-.-.-.Q 5 5 3 w s F # ",
"@ > < < > = -.-.-.-.-.-.=.v X o 3 2 q ~ -.-.-.-.-.p 2 , 2 , 2 + ",
"o # # % ; ; -.-.-.-.-.%.1 % % % ; ; % @ B -.-.-.-.o.; $ % @ % o ",
"X X o @ K L -.-.-.-.-.g O - 4 3 > > - X X ~ -.-.-.-.q X X X X X ",
"5 9 2 # U ` -.-.-.-. .  ; 4 0 w 5 5 3 o X t -.-.-.-.E o 5 9 5 9 ",
"w e 3 # e G -.-.-.-.W . < 3 3 9 0 9 3 o o 5 $.-.-.-.~ + w e w e ",
"5 5 2 O ; 3 -.-.-.-.x o % ; ; 2 3 < - X X > $.-.-.-.! O 5 0 4 5 ",
"; 3 - X o % O.-.-.-.m X X $ % % % # X X X + #.-.-.-.! # > < ; ; ",
"@ H 3 > < ; ! -.-.-. .# = * X @ w s < > ; ; =.-.-.-./ f f u 3 $ ",
"X _ y 0 0 4 h -.-.-.-.p 2 > X , I _ r 5 5 { -.-.-.-.) Y _ K w + ",
"o 3 e 0 w 5 % *.-.-.-.$.3 , X - K d 9 5 A -.-.-.-.&.3 9 e 5 w @ ",
"+ < 5 5 5 2 o M -.-.-.-.#.i X + 0 9 5 n -.-.-.-.-.T 9 2 9 3 9 # ",
"+ > > ; ; % o @ O.-.-.-.-.-.} ! R ' $.-.-.-.-.-.[ ; < : , , , X ",
"X X X + % * * % 6 %.-.-.-.-.-.-.-.-.-.-.-.-.-.| - - $ X X X X X ",
", 2 - $ w 2 , 5 5 q O.-.-.-.-.-.-.-.-.-.-.-.{ e e e , X , 2 < 2 ",
"r e 4 $ w , , 0 w 3 < z +.-.-.-.-.-.-.-.} k w r e e 2 o w e r r ",
"w w 4 @ 0 w w w 0 3 > X > 7 b ^ ' T l .   5 w w w w * O w e w e ",
"3 9 2 X o , - - , , # X o ; : > > ; X X . % < 2 , - X @ 4 0 3 3 "
};
