/* XPM */
static char *result[] = {
/* columns rows colors chars-per-pixel */
"32 32 10 1 ",
"  c #343535",
". c #333A3B",
"X c #3A3B3B",
"o c #484A4A",
"O c #575959",
"+ c #00BCD4",
"@ c #F2F7F7",
"# c gray97",
"$ c #F5FAFA",
"% c white",
/* pixels */
"+++++++++++++ XXXXoo +++++++++++",
"+++++++++++XXXX   o   ++++++++++",
"++++++++++   XXX XXX XXXX+++++++",
"++++++++Xo  oXXXXXXXXXXXXo.+++++",
"++++++XXXo   XXooooXXX   oX  +++",
"++++ XXXoooX XXXXXXXXX   XXXO  +",
"+++ oooXXXXX@@@@@@@@@XX XXXXoX +",
"++  XoOXXXX@########@@XXXXXXoo +",
"++XXXXXXXX@@#XXXXXXXX@@XXXXXoX +",
"+ XXXXXXXX@#XXXXXXXXX##XXXXXXX  ",
"  XXXXXX @@XXXXXXXXXXX##XXXXXXX ",
"  XXXXXX @XXXXXXoXXXXXX#XXXXXXXX",
"  XXXXXX @XXXXXXoXXXXXXXXXXXX XX",
" XXXXXXXX@XXXXXX XXXXXXXXXXX   X",
"XXXXXXXXX@XXX%%%%%%%%XXXXXXX  XX",
"XXXXXXXXX@XX%%%%%%%%%%ooXXX   XX",
"XXXXXXXXX@X@@XXXXXXX%%@XXXXX  XX",
"XXXXXXXXX@@@XXXXXXXXX%@#XXXXXXXX",
"XXXXXXXXX@@XXXXXXXXXXX%#XXXXXXXX",
"XXXXXoXXX@XXXXXXXXXXXXX#XXX XXXX",
"XXXXXOXXX@XXXXXXXXXXXXX#XXX XXXX",
"XXXXoOXXX@XXXXXXXXXXXXX#XX  XXXX",
"XXXXOOXXX@XXXXXXXXXXXXX#XX  XXXX",
"XXXXOOXXX@%XXXXXXXXXXX%#Xo  XXXX",
"XXXXOoXXX@%XXXXXXXXX%%@$X   XXXX",
"XXXXoXXXXX%%XXXXXXXX%%$XX   XXXX",
"oXXXoXXXXXX%%%%%XX%%%%XXXX XXXXX",
" oXXXXXXXXXX%%%%%%%%%XXXXXXXXXX ",
" oXXXXXXXXXXXX%%%%%XXXXXXXXXXXX ",
"  oXXXXXXXXXXXXoo  XXXXXXXXXXX  ",
"   oXXXXXXXXXXoo   XXXXXXXXXX   ",
"    XXXXXXXXXoo    XXXXXXXXXX   "
};
