/* XPM */
static char *result[] = {
/* columns rows colors chars-per-pixel */
"32 32 87 1 ",
"  c #4F2E28",
". c #55332C",
"X c #5A362F",
"o c #5F3932",
"O c #643C34",
"+ c #683F37",
"@ c #693F38",
"# c #6C413A",
"$ c #73463E",
"% c #76483F",
"& c #774840",
"* c #7C4B42",
"= c #7B5E5A",
"- c #814F46",
"; c #845147",
": c #865248",
"> c #8B564C",
", c #8F584E",
"< c #91594F",
"1 c #955C51",
"2 c #995E54",
"3 c #9D6156",
"4 c #A4655A",
"5 c #A7685C",
"6 c #AB6A5E",
"7 c #9A6F68",
"8 c #887471",
"9 c #907774",
"0 c #947975",
"q c #AF6C60",
"w c #B16E62",
"e c #B67164",
"r c #B97366",
"t c #BD7669",
"y c #B97F76",
"u c #C3796C",
"i c #CA7E70",
"p c #A2807B",
"a c #CE8173",
"s c #D28475",
"d c #D88778",
"f c #DA887A",
"g c #E28E7E",
"h c #B58982",
"j c #B98B84",
"k c #B6AEAD",
"l c #B9AFAE",
"z c #BDB1AF",
"x c #C7928A",
"c c #E58F80",
"v c #E69081",
"b c #ED9585",
"n c #F19787",
"m c #F19887",
"M c #F59A89",
"N c #F99D8C",
"B c #EE9F91",
"V c #FEA08E",
"C c #FFA392",
"Z c #FFA896",
"A c #F2AA9E",
"S c #FFAC9B",
"D c #FFB29F",
"F c #C3B3B1",
"G c #C9B6B3",
"H c #C3BAB9",
"J c #CCBEBC",
"K c #D2B9B6",
"L c #FFB5A3",
"P c #FFB8A5",
"I c #FFBCA8",
"U c #D3C1BF",
"Y c #EBC4BF",
"T c #CAC4C4",
"R c #D9C3C0",
"E c #D5CFCE",
"W c #DDD2D1",
"Q c #E3C7C4",
"! c #E7C9C5",
"~ c #E2D4D2",
"^ c #F3DAD7",
"/ c #FFDBD3",
"( c #FCDEDA",
") c #E2E0DF",
"_ c #E5E1E0",
"` c #F4F1F1",
"' c #FFFFFF",
/* pixels */
"OOO+O+OOOOOOOOOOOOOOOOOOOOOOOOOO",
"O66q63kHRRJHJJHHHJURQ!JHHJJ5q66#",
"Owrwr6)'''''''''''''''''''Werer@",
"+2rwrq_'''''''''''''''''''j4r4r&",
"$4553,_''''''''''''''''''~64666#",
"+*&*&#T__~_________)'''''9-&-**+",
":1*&agmr1>:+*442>>@k''''W2>+>1>1",
"661&gMCiq31O4wwr653`''''xr2+4666",
"rr4%uisuw42+445wrwK''''^fI6#errr",
"qw5#165454>O-12444`''''Avb:#wr6w",
"11>+%:*-->$O#-*;:F''''Wq6>+#1311",
"O>>>%&X+O%$+*&O.#`''''8O#$*:>,:#",
"O565-;@uZ6211>OoF''''(#O:$<6qrt#",
"+5rw44%MStwq31O@`''''P:O5<46rgV#",
"@3wqq4#uuwrw41Ok''''~a,O4664eav$",
"$<221-O*12421>O`''''p,*O:131333#",
"#$$&:,1*:::#$&F''''E#*->wi<&&&&+",
"OO#$MNN32>>.#:`''''8O15tCZ2OOOOO",
"663$SPCrw41X>K''''~+O6riVN4+6qqw",
"rr5$tbtww41O1`''''h+O6wrwr>@wrrr",
"663#>43232-+l''''W;OO<4442$#6w56",
">4;O+*%%-:#O`''''0OOO$*-*%+$<2>>",
"#m4<1>#*26,z''''Us2<::+O;tugci4&",
"OLuer4%tvna`''''SLr6w6%OwSNDDMr@",
"#4rqe6%uiMY''''JNfw5ww>Org4qr5e$",
"#26563#:3w`'''`=ww5244>O2q54w4q&",
"$,,,:$+$:G''''HO221;--&@&>2<111O",
"OOO#;;;**`''''7w&&@OO*::>:%OOOOO",
"13:$e316K''''/dI44>. 4wrrr1O1224",
"tr6$r1<y`''''Briwwwo.wrrrr2+wrrt",
"rr5$weeew4<O><16wq4o.5wrrw;@wrrr",
"463O#1::<2%OO>><<>OOO*221>O$5w44"
};
