/* XPM */
static char *result[] = {
/* columns rows colors chars-per-pixel */
"32 32 10 1 ",
"  c #343535",
". c #333A3B",
"X c #3A3B3B",
"o c #484A4A",
"O c #575959",
"+ c #00BCD4",
"@ c #F2F7F7",
"# c #F4F7F7",
"$ c gray97",
"% c #F9FCFC",
/* pixels */
"+++++++++++++ XXXXoo +++++++++++",
"+++++++++++XXXX   o   ++++++++++",
"++++++++++   XXX XXX XXXX+++++++",
"++++++++Xo  oXXXXXXXXXXXXo.+++++",
"++++++XXXo   XXooooXXX   oX  +++",
"++++ XXXoooX XXXXXXXXX   XXXO  +",
"+++ oooXXXXX@@@@@@@@@XX XXXXoX +",
"++  XoOXXXX@$$$$$$$$@@XXXXXXoo +",
"++XXXXXXXX@@$XXXXXXXX@#XXXXXoX +",
"+ XXXXXXXXXXXXXXXXXXX##XXXXXXX  ",
"  XXXXXX XXXXXXXXXXXX##XXXXXXXX ",
"  XXXXXX XXXXXXXoXXX###XXXXXXXXX",
"  XXXXXX XXXXXXXoXXX##XXXXXXX XX",
" XXXXXXXXXXXXXXX XXX##XXXXXX   X",
"XXXXXXXXXXXXXXXXXXX##XXXXXXX  XX",
"XXXXXXXXXXXXXXXXXXX##XooXXX   XX",
"XXXXXXXXXXXXXXXXXX###XXXXXXX  XX",
"XXXXXXXXXXX############XXXXXXXXX",
"XXXXXXXXXXX############XXXXXXXXX",
"XXXXXoXXXXXXXXXXX##XXXXXXXX XXXX",
"XXXXXOXXXXXXXXXXX##XXXXXXXX XXXX",
"XXXXoOXXXXXXXXXX###XXXXXXX  XXXX",
"XXXXOOXXXXXXXXXX##XXXXXXXX  XXXX",
"XXXXOOXXXXXXXXX###XXXXXXXo  XXXX",
"XXXXOoXXXXXXXXX%#XXXXXXXX   XXXX",
"XXXXoXXXXXXXXX%##XXXXXXXX   XXXX",
"oXXXoXXXXXXXXX%%XXXXXXXXXX XXXXX",
" oXXXXXXXXXXXX%XXXXXXXXXXXXXXXX ",
" oXXXXXXXXXXXX%XXXXXXXXXXXXXXXX ",
"  oXXXXXXXXXXXXoo  XXXXXXXXXXX  ",
"   oXXXXXXXXXXoo   XXXXXXXXXX   ",
"    XXXXXXXXXoo    XXXXXXXXXX   "
};
