/* XPM */
static char *result[] = {
/* columns rows colors chars-per-pixel */
"32 32 109 2 ",
"   c #56342D",
".  c #59352E",
"X  c #5F3932",
"o  c #643C34",
"O  c #683F37",
"+  c #693F38",
"@  c #6C413A",
"#  c #73463E",
"$  c #76483F",
"%  c #774840",
"&  c #7B4B42",
"*  c #7C5F5B",
"=  c #814E45",
"-  c #835147",
";  c #865249",
":  c #8C564C",
">  c #8F584E",
",  c #91594F",
"<  c #955C51",
"1  c #995E54",
"2  c #9D6156",
"3  c #A4655A",
"4  c #A7685C",
"5  c #AB6A5E",
"6  c #8B6661",
"7  c #926A64",
"8  c #9E7069",
"9  c #8B7572",
"0  c #9E7D79",
"q  c #AF6D60",
"w  c #B16E62",
"e  c #A4746C",
"r  c #AB786F",
"t  c #B67164",
"y  c #B97366",
"u  c #BC7568",
"i  c #B77F75",
"p  c #B87F76",
"a  c #C47A6D",
"s  c #CB7F71",
"d  c #A4807B",
"f  c #A8827D",
"g  c #CE8173",
"h  c #D18375",
"j  c #D88778",
"k  c #E28D7E",
"l  c #938483",
"z  c #AF8680",
"x  c #A98E8A",
"c  c #B68A83",
"v  c #A39694",
"b  c #AC9997",
"n  c #BA9F9B",
"m  c #ADA2A1",
"M  c #BDA9A6",
"N  c #B7AFAE",
"B  c #B8AFAE",
"V  c #BEB9B8",
"C  c #CD968D",
"Z  c #E58F80",
"A  c #E69081",
"S  c #EF9686",
"D  c #F19887",
"F  c #F59A89",
"G  c #F99C8C",
"H  c #C2A39E",
"J  c #DBA69E",
"K  c #FFA593",
"L  c #FFA896",
"P  c #FFAB99",
"I  c #FFB29F",
"U  c #C7A5A0",
"Y  c #CAA7A1",
"T  c #C8AEAA",
"R  c #C5B4B2",
"E  c #C2BAB9",
"W  c #CABDBB",
"Q  c #D3BAB6",
"!  c #EEB0A6",
"~  c #FFB4A1",
"^  c #FFBAA6",
"/  c #F3BAB1",
"(  c #D2C1BE",
")  c #FFC1B4",
"_  c #FFC8B3",
"`  c #FFC5B8",
"'  c #CFC6C5",
"]  c #DCC5C1",
"[  c #D4CECE",
"{  c #D7D0CF",
"}  c #D9D0CF",
"|  c #DBD7D7",
" . c #DCD8D7",
".. c #DFD9D8",
"X. c #FDCEC6",
"o. c #FFD1C4",
"O. c #E5D5D3",
"+. c #E5DBDA",
"@. c #F6E2DF",
"#. c #FFE0D8",
"$. c #E5E0E0",
"%. c #ECE3E2",
"&. c #ECE9E9",
"*. c #F3E6E4",
"=. c #FFE6E2",
"-. c #F3EBEA",
";. c #F4F1F1",
":. c #FAF4F3",
">. c #FFFFFF",
/* pixels */
"o o o O o O o o o o o o o X o o o o o o o o o o o o o o o o o o ",
"o 5 5 q 5 2 O # q q : # < d v E E n c 5 a g 1 o @ & < 5 5 5 q + ",
"o w y w t 5 & 5 P ^ _ Q &.>.>.>.>.>.>.-.#.~ g o 5 3 2 w y w y + ",
"O 1 y w y w @ 5 _ ` ;.>.>.>.>.>.>.>.>.>.>.;.H o q t q 3 u 3 t & ",
"# 2 5 3 3 : O ; ! >.>.>.>.>.>.>.>.>.>.>.>.>.>.N : 3 5 3 5 5 5 @ ",
"+ & & & $ @ o 9 :.>.>.>.>.>.| V W ..>.>.>.>.>.>.l # = & & = = o ",
"; < & % g k F O.>.>.>.>...z 2 2 : : * | >.>.>.>.$.1 : O : < : < ",
"5 5 < $ k F K >.>.>.>.&.2 t t t 4 5 2 O $.>.>.>.>.g 1 o 3 5 5 5 ",
"t y 3 % a s J >.>.>.>.B 2 q 4 t t t 5 O m >.>.>.>.o.q O t y y y ",
"w w 3 @ < 5 H >.>.>.>.v - < < 3 3 3 > o v >.>.>.>./ ; @ w t w w ",
"< < : + # ; 6 >.>.>.>.N @ & & - ; - @ o N >.>.>.>.d @ @ , 2 < < ",
"o : : : $ & . | >.>.>.:.6 & o . @ & ; 7 ;.>.>.>.$.@ % ; : : ; @ ",
"o 5 5 5 & ; + C >.>.>.>.;.M o X < 2 T :.>.>.>.:.x # < 4 q t u @ ",
"O 4 y w 3 3 $ F ) :.>.>.>.>.:.$.%.:.>.>.>.>.:.m 3 > 3 q y A K @ ",
"+ 2 w q 5 3 @ a a c *.>.>.>.>.>.>.>.>.>.>.*.d o 3 5 5 4 t g A # ",
"@ < 1 1 < ; o & < ( >.>.>.>.>.>.>.>.>.>.>.>.E X - 2 2 < 2 < 2 @ ",
"O $ $ & : : 1 6 $.>.>.>.>.>.&.$.$.&.>.>.>.>.>.&.p s : % & $ & o ",
"o o o # F G G +.>.>.>.>. .0 4 3 < < 0 | >.>.>.>.=.L 2 o o o o o ",
"5 w 2 # L ^ X.>.>.>.>.[ : 5 w t 5 5 3 + E >.>.>.>.X.3 o 5 w 5 w ",
"y t 4 # y S -.>.>.>.;.X < 3 3 q w w 3 O o %.>.>.>.-.: @ t y t t ",
"5 5 3 @ > 2 >.>.>.>.W O & : : 2 3 1 - o o R >.>.>.>.$ @ 5 w 4 5 ",
": 2 - o o b >.>.>.>.v o o & % & & $ o o O v >.>.>.>.v % , 1 : : ",
"@ D 3 < < d >.>.>.>.W $ - & o $ t h 2 , : R >.>.>.>.C j Z s 3 % ",
"O ~ a q t 5 :.>.>.>.:.1 2 , o < K ~ y 5 5 %.>.>.>.>.G I ~ F t + ",
"O 3 y q t 5 { >.>.>.>.O.3 , o ; G j q 5 } >.>.>.>.@.3 5 y 5 t # ",
"@ 1 q 4 5 2 9 >.>.>.>.>.+.f o O w w c +.>.>.>.>.>.U 5 3 w 3 q # ",
"@ > > > : & O E >.>.>.>.>.>.&.$.%.&.>.>.>.>.>.>.' : 1 > , < < O ",
"O o o @ = = - & [ >.>.>.>.>.>.>.>.>.>.>.>.>.>.{ ; ; % o o o o o ",
"< 2 : % w 2 < 4 5 W >.>.>.>.>.>.>.>.>.>.>.:.] y y y < o < 2 1 2 ",
"y y 3 $ t 1 < w t 3 e E -.>.>.>.>.>.>.&.V i y u y y 2 O t y u u ",
"t t 4 # q t t w w 3 , o , 8 n Y Y H r X   5 t t t t = @ t y t y ",
"4 q 2 o O < : ; < < $ o O : : , , : o o X & 1 2 < ; o # 3 w 3 3 "
};
