/* XPM */
static char *result[] = {
/* columns rows colors chars-per-pixel */
"32 32 11 1 ",
"  c #343535",
". c #333A3B",
"X c #3A3B3B",
"o c #484A4A",
"O c #575959",
"+ c #00BCD4",
"@ c #F2F7F7",
"# c gray97",
"$ c #F9FCFC",
"% c white",
"& c None",
/* pixels */
"+++++++++++++ XXXXoo +++++++++++",
"+++++++++++XXXX   o   ++++++++++",
"++++++++++   XXX XXX XXXX+++++++",
"++++++++Xo  oXXXXXXXXXXXXo.+++++",
"++++++XXXo   XXooooXXX   oX  +++",
"++++ XXXoooX XXXXXXXXX   XXXO  +",
"+++ oooXXXXXX@@@@@@@@XX XXXXoX +",
"++  XoOXXXXX$$######@@XXXXXXoo +",
"++XXXXXXXXX$$XXXXXXXX$$XXXXXoX +",
"+ XXXXXXXXX$$XXXXXXXX$$XXXXXXX  ",
"  XXXXXX XX$$XXXXXXXX$$XXXXXXXX ",
"  XXXXXX XX$$XXXoXXXX$$XXXXXXXXX",
"  XXXXXX XX$$XXXoXXXX$$XXXXXX XX",
" XXXXXXXXXX$$XXX XXXX$$XXXXX   X",
"XXXXXXXXXXX$$XXXXXXXX$%XXXXX  XX",
"XXXXXXXXXXXX$$$XXXX$$%XoXXX   XX",
"XXXXXXXXXXXXX$$$$$$$XXXXXXXX  XX",
"XXXXXXXXXXXXXXX$$$$$XXXXXXXXXXXX",
"XXXXXXXXXXXXX%$$$$$$$$XXXXXXXXXX",
"XXXXXoXXXXXX$$%XXXXX$$$XXXX XXXX",
"XXXXXOXXXXX$$%XXXXXXX$$XXXX XXXX",
"XXXXoOXXXXX$$XXXXXXXXX$$XX  XXXX",
"XXXXOOXXXXX$$XXXXXXXXX$$XX  XXXX",
"XXXXOOXXXXX$%XXXXXXXXX&$Xo  XXXX",
"XXXXOoXXXXX$$XXXXXXXXX%$X   XXXX",
"XXXXoXXXXXX$$XXXXXXXXX$$X   XXXX",
"oXXXoXXXXXX$$$XXXXXXX$$XXX XXXXX",
" oXXXXXXXXXX$$$XXXXX$$XXXXXXXXX ",
" oXXXXXXXXXXXX$$$$$$$XXXXXXXXXX ",
"  oXXXXXXXXXXXXoo  XXXXXXXXXXX  ",
"   oXXXXXXXXXXoo   XXXXXXXXXX   ",
"    XXXXXXXXXoo    XXXXXXXXXX   "
};
