/* XPM */
static char *result[] = {
/* columns rows colors chars-per-pixel */
"32 32 112 2 ",
"   c #56342D",
".  c #5F3932",
"X  c #643C34",
"o  c #683F37",
"O  c #693F38",
"+  c #6C4139",
"@  c #73463E",
"#  c #76483F",
"$  c #774840",
"%  c #7C4B42",
"&  c #7A5E5A",
"*  c #7E6F6D",
"=  c #814F46",
"-  c #835047",
";  c #865249",
":  c #8B564C",
">  c #8F584E",
",  c #91594F",
"<  c #955C51",
"1  c #995E54",
"2  c #9D6156",
"3  c #A4655A",
"4  c #A7685C",
"5  c #AB6A5E",
"6  c #986D67",
"7  c #9E7069",
"8  c #867370",
"9  c #AF6D60",
"0  c #B16E62",
"q  c #A2736B",
"w  c #A8766E",
"e  c #B67164",
"r  c #B97366",
"t  c #BC7568",
"y  c #B37C73",
"u  c #B87F76",
"i  c #C47A6D",
"p  c #CC7F71",
"a  c #B98076",
"s  c #CE8173",
"d  c #D18375",
"f  c #D88778",
"g  c #E28E7F",
"h  c #968683",
"j  c #A68D89",
"k  c #A98E8A",
"l  c #B7948F",
"z  c #A29593",
"x  c #AC9996",
"c  c #BF9892",
"v  c #B39C99",
"b  c #B89E9B",
"n  c #BFA19D",
"m  c #ADA2A1",
"M  c #B5A6A4",
"N  c #B8A7A4",
"B  c #BFA9A7",
"V  c #BFB2B0",
"C  c #C59189",
"Z  c #C9938B",
"A  c #C09893",
"S  c #CE9F98",
"D  c #E58F80",
"F  c #E69081",
"G  c #EF9686",
"H  c #F19887",
"J  c #F69A8A",
"K  c #F99C8C",
"L  c #C4A39F",
"P  c #FFA593",
"I  c #FFA997",
"U  c #F5AB9F",
"Y  c #FFAB99",
"T  c #FFB29F",
"R  c #C9A6A1",
"E  c #C5ACA9",
"W  c #C9AEAA",
"Q  c #CEB0AC",
"!  c #C2B3B1",
"~  c #CEB8B5",
"^  c #C3BBBA",
"/  c #CDBEBC",
"(  c #D6BBB7",
")  c #D9BCB8",
"_  c #EBAEA4",
"`  c #FFB5A1",
"'  c #FFBAA6",
"]  c #D1C0BE",
"[  c #FFC8B3",
"{  c #FFD0BF",
"}  c #CDC6C5",
"|  c #D8C3C0",
" . c #D4C8C6",
".. c #D4CECE",
"X. c #D8C9C8",
"o. c #D7D0CF",
"O. c #DDD2D1",
"+. c #FFD5CF",
"@. c #E4D4D2",
"#. c #E4DBD9",
"$. c #F2DAD7",
"%. c #FFDBD3",
"&. c #F7DCD8",
"*. c #FFE2DC",
"=. c #E4E0E0",
"-. c #EAE3E2",
";. c #EEE9E9",
":. c #FDE9E5",
">. c #F1EBEA",
",. c #FCEFED",
"<. c #F5F1F1",
"1. c #FFFFFF",
/* pixels */
"X X o X o X X X X X X X X X X X X X X X X X X X X X X X X X X X ",
"X 5 5 9 5 2 o @ 9 5 : @ 7 B ^ ^ ^ / W y i p 1 X O % < 5 5 5 0 O ",
"X 0 r 9 r 5 % 5 Y ' { @.1.1.1.1.1.1.1.1.:.' p X 5 3 1 0 r 0 r o ",
"o 1 r 0 r 9 @ 5 [ %.1.1.1.1.1.1.1.1.1.1.1.1.E o 0 r 9 3 r 4 0 % ",
"@ 3 4 3 2 > o ; &.1.1.1.1.1.1.1.1.1.1.1.1.1.1.m : 3 9 3 9 4 5 + ",
"o % % % # + X ^ 1.1.1.1.1...m h j N =.1.1.1.1.<.8 @ = % % = = X ",
"; < % $ s D U <.1.1.1.<.x 2 2 1 > ; + m <.1.1.1.O.1 ; X : < > < ",
"4 5 < @ D J *.1.1.1.1.h 2 r r e 3 5 2 o m 1.1.1.1.C 1 X 4 5 5 5 ",
"r r 3 $ i p 1.1.1.1.O.o 3 3 4 r 0 0 5 o X @.1.1.1.*.5 o 0 r r r ",
"9 0 3 + < c 1.1.1.1.k X - < < 3 3 3 > o X E 1.1.1.,.; @ 0 r 0 0 ",
"< < > o @ v 1.1.1.1.@ X + % % - ; - + X X $ 1.1.1.1.o + < 2 < < ",
"X ; : > $ x 1.1.1.1.@ o % % X   + % ; ; ; % 1.1.1.1.x ; : ; > o ",
"X 5 9 4 % v 1.1.1.1.q < < > X . < 2 3 P g U 1.1.1.1.b 5 9 r t o ",
"o 3 r 0 3 w 1.1.1.1.( 5 2 , X + 0 0 5 G g +.1.1.1.1.L 5 r D K @ ",
"+ 2 0 9 0 3 =.1.1.1.<.u 3 < o o r 0 5 4 a 1.1.1.1.1.L 3 r d F # ",
"+ < 1 1 < ; z 1.1.1.1.>.q ; X X 3 3 1 6 ;.1.1.1.1.1.n < 2 < 2 + ",
"o # # % ; > < -.1.1.1.1.<.V % % - ; ! >.1.1.1.1.1.1.v # # % $ X ",
"X X X @ J K J q ;.1.1.1.1.1.1.-.-.1.1.1.1.>.-.1.1.1.l X X X X X ",
"5 9 2 # I ' P r a >.1.1.1.1.1.1.1.1.1.1.<.A <.1.1.1.3 o 5 9 5 0 ",
"r r 4 @ r G t 0 0 3 } <.1.1.1.1.1.1.1.=.8 5 1.1.1.<.> + e r r r ",
"5 5 2 + > 2 2 2 2 2 % o M  .-.-.-.X.j o X k 1.1.1.#.# + 4 0 4 5 ",
"; 3 - o o % $ $ - ; + X X % $ % % % X X X ^ 1.1.1.^ o $ , 1 > > ",
"+ H 3 < < : + % 1 5 , # ; % X # e d < > > ;.1.1.1.Z i f D p 2 # ",
"o ` i 0 r 3 # t _ :.s 1 1 , X < P ` t 9 W 1.1.1.>.I K T T J r o ",
"o 3 r 9 r 5 # S 1.1.$.0 3 , X ; J f e A <.1.1.1.) D 4 9 r 5 r @ ",
"+ < 9 4 5 2 & <.1.1.1.>.n < X o e 9 R <.1.1.1.;.2 5 5 2 9 3 9 @ ",
"@ > > > : $ + } 1.1.1.1.1.;.} ^ ] ;.1.1.1.1.1.h % > < , , < < X ",
"X X X + - - - % o.1.1.1.1.1.1.1.1.1.1.1.1.1.! - - ; $ X X X X X ",
"< 2 ; $ e 2 > 4 5 ] 1.1.1.1.1.1.1.1.1.1.<.~ r r r r < X < 2 1 2 ",
"t t 4 $ e 1 < e r 2 j X.<.1.1.1.1.1.<...* 9 t r r r 2 o r r t t ",
"r e 4 @ 9 r e e 0 4 > o < n B | Q R 4 .   5 e r r 0 = + r r r r ",
"3 5 2 . + < ; - > 1 $ X X : : > < : X X . % < 2 < ; X @ 3 0 2 3 "
};
