/* XPM */
static char *result[] = {
/* columns rows colors chars-per-pixel */
"32 32 12 1 ",
"  c #343535",
". c #333A3B",
"X c #3A3B3B",
"o c #484A4A",
"O c #575959",
"+ c #00BCD4",
"@ c #F2F7F7",
"# c gray97",
"$ c #F9FCFC",
"% c gray99",
"& c white",
"* c None",
/* pixels */
"+++++++++++++ XXXXoo +++++++++++",
"+++++++++++XXXX   o   ++++++++++",
"++++++++++   XXX XXX XXXX+++++++",
"++++++++Xo  oXXXXXXXXXXXXo.+++++",
"++++++XXXo   XXooooXXX   oX  +++",
"++++ XXXoooX XXXXXXXXX   XXXO  +",
"+++ oooXXXXXX@@@@@@@@XX XXXXoX +",
"++  XoOXXXXX$$######@@XXXXXXoo +",
"++XXXXXXXXX$$#XXXXXX#$$XXXXXoX +",
"+ XXXXXXXXX$$XXXXXXXX$$XXXXXXX  ",
"  XXXXXX XX$$XXXXXXXX$$%XXXXXXX ",
"  XXXXXX XX$$XXXoXXXX$$%XXXXXXXX",
"  XXXXXX XX$$XXXoXXXX$$%XXXXX XX",
" XXXXXXXXXX$$XXX XXXX$$%XXXX   X",
"XXXXXXXXXXX$$XXXXXXXX$&%XXXX  XX",
"XXXXXXXXXXXX$$$XXXX$$&#%XXX   XX",
"XXXXXXXXXXXXX$$$$$$#XX#%XXXX  XX",
"XXXXXXXXXXXXXXXXXXXXXX%%XXXXXXXX",
"XXXXXXXXXXXXXXXXXXXXXX%%XXXXXXXX",
"XXXXXoXXXXXXXXXXXXXXXX%%XXX XXXX",
"XXXXXOXXXXXXXXXXXXXXXX%%XXX XXXX",
"XXXXoOXXXXXXXXXXXXXXXX%%XX  XXXX",
"XXXXOOXXXXXXXXXXXXXXXX$%XX  XXXX",
"XXXXOOXXXXXXXXXXXXXXXX*%Xo  XXXX",
"XXXXOoXXXXX$$XXXXXXXX#&%X   XXXX",
"XXXXoXXXXXX$$XXXXXXXX#$XX   XXXX",
"oXXXoXXXXXX$$$XXXXXX#$$XXX XXXXX",
" oXXXXXXXXXX$$$#####$$XXXXXXXXX ",
" oXXXXXXXXXXXX$$$$$$$XXXXXXXXXX ",
"  oXXXXXXXXXXXXoo  XXXXXXXXXXX  ",
"   oXXXXXXXXXXoo   XXXXXXXXXX   ",
"    XXXXXXXXXoo    XXXXXXXXXX   "
};
