/* XPM */
static char *_2a35b64d68d46968eb0a0e8dac853e7i8sxsndUHsRqv3zS[] = {
/* columns rows colors chars-per-pixel */
"32 32 155 2 ",
"   c #4C4011",
".  c #67521C",
"X  c #7A5D23",
"o  c #556B32",
"O  c #596C33",
"+  c #5B7335",
"@  c #5F7738",
"#  c #79632E",
"$  c #637B3A",
"%  c #02164F",
"&  c #18194E",
"*  c #221E4E",
"=  c #15264F",
"-  c #1E284F",
";  c #26274F",
":  c #2E244F",
">  c #2F2E4F",
",  c #42294E",
"<  c #593D4E",
"1  c #054143",
"2  c #0E4747",
"3  c #064648",
"4  c #09494B",
"5  c #1D4A4A",
"6  c #075456",
"7  c #09595C",
"8  c #145A5C",
"9  c #1E5D5E",
"0  c #274645",
"q  c #2B4D4B",
"w  c #304A48",
"e  c #2F504F",
"r  c #3B4E51",
"t  c #235758",
"y  c #355B55",
"u  c #2D6057",
"i  c #396859",
"p  c #425753",
"a  c #5A5C52",
"s  c #6B424D",
"d  c #71414C",
"f  c #5A614F",
"g  c #647749",
"h  c #797752",
"j  c #8D0431",
"k  c #9E0439",
"l  c #931C34",
"z  c #A6063C",
"x  c #AA183E",
"c  c #832B2D",
"v  c #882832",
"b  c #A6263C",
"n  c #8A4427",
"m  c #805D26",
"M  c #934C36",
"N  c #965134",
"B  c #9B5037",
"V  c #A35C3E",
"C  c #8F6635",
"Z  c #936337",
"A  c #956739",
"S  c #BD0245",
"D  c #BD0846",
"F  c #B81344",
"G  c #B72042",
"H  c #BC2C47",
"J  c #BB3647",
"K  c #C40448",
"L  c #CF0E4D",
"P  c #C31A48",
"I  c #EA0958",
"U  c #E21755",
"Y  c #DC2A53",
"T  c #ED255A",
"R  c #834B4B",
"E  c #9A5853",
"W  c #AD4149",
"Q  c #A75E40",
"!  c #AE5D46",
"~  c #A55D49",
"^  c #B85E4C",
"/  c #B44652",
"(  c #AE6246",
")  c #AF6348",
"_  c #AD6C49",
"`  c #B06448",
"'  c #B06A49",
"]  c #BA6B4D",
"[  c #A87548",
"{  c #B1734C",
"}  c #BF714F",
"|  c #B07D4E",
" . c #AA6050",
".. c #AE7354",
"X. c #BB7750",
"o. c #DA4455",
"O. c #C26F50",
"+. c #CC7455",
"@. c #D27857",
"#. c #6A843F",
"$. c #6C8740",
"%. c #728D43",
"&. c #769346",
"*. c #7B925B",
"=. c #9F8C4D",
"-. c #979E51",
";. c #A6854D",
":. c #A8894F",
">. c #AF8750",
",. c #BE8B55",
"<. c #A69251",
"1. c #AD9052",
"2. c #A49C54",
"3. c #84A44F",
"4. c #86A650",
"5. c #8BAD54",
"6. c #8BAD5A",
"7. c #93A553",
"8. c #8EB156",
"9. c #8EB05A",
"0. c #91B357",
"q. c #92B658",
"w. c #9CB159",
"e. c #95B95B",
"r. c #99BE5D",
"t. c #ADA459",
"y. c #ABB45D",
"u. c #878563",
"i. c #8B9571",
"p. c #9EA264",
"a. c #ADBC60",
"s. c #C68356",
"d. c #D3865B",
"f. c #CB955C",
"g. c #9CC25F",
"h. c #9EC460",
"j. c #A1C661",
"k. c #AFC665",
"l. c #A5CC64",
"z. c #ACCD66",
"x. c #A6CE68",
"c. c #A7D066",
"v. c #A9D167",
"b. c #ACD569",
"n. c #999E88",
"m. c #9EA590",
"M. c #A1AA96",
"N. c #B9C7C3",
"B. c #BCDAD8",
"V. c #CCCEC9",
"C. c #C6D7D5",
"Z. c #E6DBD8",
"A. c #E5E6E4",
"S. c #EBE3E1",
"D. c #FCFBFA",
/* pixels */
"b.l.l.v.b.b.b.b.b.b.b.b.b.v.c.b.b.l.c.b.b.b.b.b.b.b.b.b.b.l.l.b.",
"b.e.q.g.l.b.b.b.b.b.b.l.h.h.h.b.b.q.q.h.l.v.b.b.b.b.v.z.h.e.r.b.",
"b.q.5.5.e.l.b.b.b.b.l.g.= 9.r % p q.5.5.e.l.b.b.b.b.z.r.8.5.e.b.",
"b.r.5.5.5.e.1.b.b.v.h.6.% % % % % > - 5.5.e.l.b.>.2.e.5.5.5.r.b.",
"b.g.8.5.5.-.,.b.b.l.r.r.h % * E d , * f 5.5.g.y.@.;.0.5.8.0.h.b.",
"b.b.g.8.5.=.X.s.z.h.r.r.: d @.+.` ~ R ; 5.5.q.d.{ t.5.8.q.h.b.b.",
"b.b.b.v.l.g.g.] +.j.l.x.,  .: +.` & ~ < j.h.y.} 1.h.h.l.v.b.b.b.",
"b.l.l.v.b.b.z.{ ] f.b.v.a ] +.+.( ` ` s b.z.f.] a.b.b.v.l.r.r.b.",
"b.j.g.h.l.b.b.y.' O.z.g.0.] ] n n ` ` 2.j.>._ | b.b.c.h.5.5.9.b.",
"b.l.h.h.h.l.b.b.1.N { ;.5.<.Q Q ! ` <.e.:._ ( t.b.b.r.5.5.5.e.b.",
"b.l.h.h.h.h.c.b.z.Z N J J 7.=.n N >.r.Y o.B C b.b.h.8.5.5.8.g.b.",
"b.b.l.h.h.h.j.b.b.w.b S S b l ! ) J T I U o.y.b.b.r.5.5.5.r.l.b.",
"b.b.b.l.l.j.l.b.b.g.M j z k x l J Y P K K ^ j.b.b.r.r.g.j.c.b.b.",
"b.g.h.v.b.b.b.b.b.b.z.v j k F S L K D D H k.b.b.b.b.b.b.b.l.l.b.",
"b.q.8.0.l.b.b.b.b.b.b.j.j k S S S S S z j.b.b.b.b.b.b.c.h.h.j.b.",
"b.q.5.5.8.h.b.b.b.b.j.0.j k S D S K F x q.j.b.b.b.b.c.g.g.g.j.b.",
"b.g.5.4.5.5.l.b.b.l.0.5.c c b W / F G b 0.q.l.b.b.v.h.g.g.g.j.b.",
"b.g.q.5.5.5.g.b.b.g.8.5.  . # u.n.X m . 5.q.h.b.b.l.g.g.h.h.v.b.",
"b.b.l.g.0.8.g.c.b.g.q.g.2 7 7 9 8 7 8 e r.e.r.b.b.j.j.h.j.v.b.b.",
"b.c.c.c.l.g.g.b.c.g.g.c.1 1 4 6 6 7 7 w h.j.j.b.b.l.l.v.v.c.l.b.",
"b.g.q.g.l.c.b.b.b.b.b.c.3 3 4 q e 7 7 8 l.b.b.b.b.b.b.c.h.q.q.b.",
"b.g.q.q.g.j.b.b.b.b.l.g.= 3 u v.b.y 7 7 e.l.b.b.b.b.l.q.8.5.q.b.",
"b.g.0.q.0.g.c.b.b.c.g.q.3 0 u b.c.u 0 t 5.q.c.b.b.c.0.5.5.8.r.b.",
"b.j.q.0.0.g.g.b.b.g.g.q.5 q i b.c.i 0 w 5.5.g.b.b.g.8.5.5.8.h.b.",
"b.b.g.g.0.q.g.c.b.h.e.e.| A v.b.b.b.Z [ 5.5.q.b.b.q.5.8.8.g.b.b.",
"b.b.b.b.l.j.g.b.b.j.h.x.[ [ b.b.b.b.V _ j.h.g.b.b.h.g.l.b.b.b.b.",
"b.g.g.l.b.b.b.b.b.h.e.7.( _ &.$.#.&.) ..p.e.j.b.b.b.b.b.l.g.g.b.",
"b.g.8.q.g.c.b.g.4.*.m.Z.Z.B.o + + O C.A.S.M.i.4.r.b.v.h.q.8.r.b.",
"b.g.q.0.g.g.c.#.@ V.N.N.B.N.o + + + B.V.D.D.Z.$ %.b.g.8.8.0.g.b.",
"b.g.q.8.8.0.l.g.3.$ O o O o o + + + O o g O @ &.r.l.q.q.8.q.g.b.",
"b.c.g.g.0.q.g.b.b.8.4.5.5.0.3.@ #.5.8.e.g.g.h.b.b.g.8.8.q.g.v.b.",
"b.b.c.l.g.g.g.b.b.r.e.h.j.z.b.b.b.b.b.l.l.l.h.b.v.g.g.h.l.b.b.b."
};
