/* XPM */
static char *_03c8244d15b462cb598c49e724c4323v3Y0UEVvqu4y69r2[] = {
/* columns rows colors chars-per-pixel */
"32 32 7 1 ",
"  c #343535",
". c #B56400",
"X c #E24444",
"o c #C8914E",
"O c #03B8D9",
"+ c #7EC3CF",
"@ c #D1BD86",
/* pixels */
"OOOOOOOOOOOO++OOOOOOOOOOOOOO++OO",
"OOOOOOOOOOOO+OOOOOOOOOOOOOOOO+OO",
"OOOOOOOOOOOO+OOOOOOOOOOOOOOOO+OO",
"OOOOOOOOOOOO+OOOOOOOOOOOOOOOO+OO",
"+OOOOOOOOOOO+OOOOOOOOOOOOOOO++OO",
"+OOOOOOOOOOO+OOOOOOOOXOXOOOO+OOO",
"++++OOOOOOOO+OOOOOOOOXXXOOOO+OOO",
"OOO++OOOOOO++OOOOOOO..XXOXO++OOO",
"..OO+OOOO+++++OOOOO....XXX++OOOO",
"...O++++++OOO+OOOOO..  ..@@@OOOO",
"o..O++OOOOOOOO++O........@@@@OOO",
"oo..+OOOOOOOOOOo.......XXXOOOOOO",
".....OOOOOOOOO.oo......XXOOOOOOO",
"Oo....oOOO.....ooo.....+OOOOOOOO",
"Oooo..oo.......oooo..oO+OOOOOOOO",
".............oooooooooO++OOOOOOO",
"o..........oooooooooo.OO+OOOOOOO",
"Ooo.......ooooooooooooOO+OOOOOOO",
"OO.......oooooooooooooOO+++OOOOO",
"O+O......oooooooooooo.OO+++++OOO",
"O+OO....oooooooooooooO+++OOO++++",
"O++OO...oooooooooooo.++OOOOOOOO+",
"OO++OO..ooooooooooooOOOOOOOOOOO+",
"OOO++OO.ooooooooooo+OOOOOOOOOOO+",
"OOOO+++++.ooooooo.O+OOOOOOOOOO++",
"O+++++++OO..OOO.OOOO+OOOOOOOOO+O",
"++OO++++OO.OOOO...OO+OOOOOOOO++O",
"+OOOOO++O..OOOOOO....OOOOOOO++OO",
"OOOOOOO+..OOOOOOOOOO...OOOOO+OOO",
"OOOOOOO....OOOOOOOO.....++++OOOO",
"OOOOOO.....OOOOOOOOOO.++OOOOOOOO",
"OOOOOOOO+OOOOOOOOOOOOO+OOOOOOOOO"
};
