/* XPM */
static char *_ddf3ae512bc4e0c98cc8c441a9caae5QdHOn8prHzF8hyfF[] = {
/* columns rows colors chars-per-pixel */
"32 32 6 1 ",
"  c None",
". c #343535",
"X c #B56400",
"o c #E24444",
"O c #C8914E",
"+ c #D1BD86",
/* pixels */
"                                ",
"                                ",
"                                ",
"                                ",
"                                ",
"                     o o        ",
"                     ooo        ",
"                    XXoo o      ",
"XX                 XXXXooo      ",
"XXX                XX..XX+++    ",
"OXX              XXXXXXXX++++   ",
"OOXX           OXXXXXXXooo      ",
"XXXXX         XOOXXXXXXoo       ",
" OXXXXO   XXXXXOOOXXXXX         ",
" OOOXXOOXXXXXXXOOOOXXO          ",
"XXXXXXXXXXXXXOOOOOOOOO          ",
"OXXXXXXXXXXOOOOOOOOOOX          ",
" OOXXXXXXXOOOOOOOOOOOO          ",
"  XXXXXXXOOOOOOOOOOOOO          ",
"   XXXXXXOOOOOOOOOOOOX          ",
"    XXXXOOOOOOOOOOOOO           ",
"     XXXOOOOOOOOOOOOX           ",
"      XXOOOOOOOOOOOO            ",
"       XOOOOOOOOOOO             ",
"         XOOOOOOOX              ",
"          XX   X                ",
"          X    XXX              ",
"         XX      XXXX           ",
"        XX          XXX         ",
"       XXXX        XXXXX        ",
"      XXXXX          X          ",
"                                "
};
