/* XPM */
static char *result[] = {
/* columns rows colors chars-per-pixel */
"32 32 161 2 ",
"   c #4B3F11",
".  c #68331C",
"X  c #7F292B",
"o  c #67521C",
"O  c #7A5D23",
"+  c #556B32",
"@  c #596C33",
"#  c #5B6F38",
"$  c #5B7335",
"%  c #5F7738",
"&  c #79622E",
"*  c #637B3A",
"=  c #02154F",
"-  c #18194E",
";  c #231C4E",
":  c #23234F",
">  c #2F244F",
",  c #2A2B4F",
"<  c #2D334F",
"1  c #323A4F",
"2  c #323A50",
"3  c #42294E",
"4  c #583B4E",
"5  c #064143",
"6  c #0A4748",
"7  c #0A595B",
"8  c #105759",
"9  c #274946",
"0  c #304A48",
"q  c #2F5545",
"w  c #315645",
"e  c #335845",
"r  c #3D5F46",
"t  c #3C4751",
"y  c #235754",
"u  c #2E5751",
"i  c #2A5F58",
"p  c #335A54",
"a  c #2D6057",
"s  c #366558",
"d  c #495A45",
"f  c #52524D",
"g  c #425753",
"h  c #71414C",
"j  c #466848",
"k  c #5B7C4B",
"l  c #45725A",
"z  c #647749",
"x  c #8C0231",
"c  c #8E0932",
"v  c #9E0439",
"b  c #931B34",
"n  c #A6073C",
"m  c #AA183E",
"M  c #852A2E",
"N  c #872031",
"B  c #A0223A",
"V  c #A9263E",
"C  c #8C4729",
"Z  c #954E31",
"A  c #965234",
"S  c #9B5237",
"D  c #99593A",
"F  c #A55B3F",
"G  c #BD0345",
"H  c #B81344",
"J  c #AC2B40",
"K  c #B72042",
"L  c #BC2646",
"P  c #BC3747",
"I  c #BB3C48",
"U  c #C40448",
"Y  c #CF0B4D",
"T  c #C31848",
"R  c #EA0958",
"E  c #E21755",
"W  c #DD2C53",
"Q  c #ED255A",
"!  c #834B4B",
"~  c #8F554A",
"^  c #9B5D4A",
"/  c #9A5853",
"(  c #AD4149",
")  c #AB5E43",
"_  c #B44652",
"`  c #84784F",
"'  c #AD6446",
"]  c #AD6947",
"[  c #AE6548",
"{  c #AD6B49",
"}  c #B06448",
"|  c #BA664E",
" . c #B16E4A",
".. c #BA6A4D",
"X. c #A27545",
"o. c #A07C46",
"O. c #A9754C",
"+. c #AA7D4D",
"@. c #AD6751",
"#. c #BC7D52",
"$. c #DB4655",
"%. c #C26E50",
"&. c #CC7455",
"*. c #D17756",
"=. c #6A843F",
"-. c #6C8740",
";. c #728D43",
":. c #769346",
">. c #7C9858",
",. c #958946",
"<. c #9F9C52",
"1. c #A48C4F",
"2. c #AC884F",
"3. c #A2944F",
"4. c #AD8350",
"5. c #B88C55",
"6. c #A69454",
"7. c #A99553",
"8. c #AA9A55",
"9. c #B89456",
"0. c #84A44F",
"q. c #86A650",
"w. c #8BAC54",
"e. c #97A653",
"r. c #95AD56",
"t. c #8EB156",
"y. c #91B357",
"u. c #92B659",
"i. c #96BA5B",
"p. c #99BD5D",
"a. c #A4B65C",
"s. c #A3BD5F",
"d. c #878563",
"f. c #8B9571",
"g. c #9EA264",
"h. c #ADBD61",
"j. c #B8B661",
"k. c #C38455",
"l. c #C58957",
"z. c #CB905B",
"x. c #9CC25F",
"c. c #9EC460",
"v. c #A1C661",
"b. c #ABC663",
"n. c #A5CC64",
"m. c #ACCC66",
"M. c #A6CE68",
"N. c #B4C665",
"B. c #A7D066",
"V. c #A9D167",
"C. c #ACD569",
"Z. c #999E88",
"A. c #9EA590",
"S. c #A1AA96",
"D. c #B9C7C3",
"F. c #BCDAD8",
"G. c #CCCEC9",
"H. c #C5D7D5",
"J. c #E5DBD7",
"K. c #E8E3DF",
"L. c #FCFBFA",
/* pixels */
"C.n.n.C.C.C.C.C.C.C.C.C.C.V.B.C.C.n.M.V.C.C.C.C.C.C.C.C.C.M.n.C.",
"C.i.u.x.B.C.C.C.C.C.C.V.n.x.x.C.C.i.i.x.n.C.C.C.C.C.C.B.c.i.p.C.",
"C.u.w.w.i.n.C.C.C.C.M.v.p.p.x.C.V.y.w.w.i.n.C.C.C.C.n.i.y.w.u.C.",
"C.i.w.w.w.u.B.C.C.V.x.i.u.p.v.C.C.p.e.w.w.u.n.2 C.B.i.w.w.w.p.C.",
"C.x.t.w.w.w.x.C.C.n.p.k.@.O.t = g a. .#.<.w.< C.C.x.1 w.w.y.c.C.",
"C.C.c.y.w.w.y.C.C.s.9.5.~ = = = = ^ [ { #.e.u.C.n.: w.t.u.v.C.C.",
"C.C.C.B.n.x.x.C.N.l.l.D ` = ; / h 3 : A { 5.a.V.t u.v.n.B.C.C.C.",
"C.n.n.B.C.C.C.j.l.k.A C.> h *.&.} ) ! , A { 5.N.m.m.n.n.n.p.p.C.",
"C.v.x.v.n.C.C.l.k.D s.x.3 @.> &.' - ' 4 c.F 9.%.h., < t w.w.y.C.",
"C.n.c.x.x.n.m.9...z.x.t.f ..&.C C ' ' h i.2.4.| N.V.p.w.w.w.i.C.",
"C.n.v.x.x.v.M.m. .%.y.w.r. .| . . } } 3.i.A ' 7.C.c.t.w.w.w.p.C.",
"C.B.n.v.x.x.n.C.m.Z  .1.y.8.F F ) } 8.p.2.] [ C.C.i.w.w.t.p.M.C.",
"C.C.C.n.n.n.n.C.C.,.S P I b.1.C A 4.C.W $.S e.C.C.i.i.c.c.M.C.C.",
"C.x.v.B.C.C.C.C.C.b.J G G V b ) } I Q R E $.V.C.C.C.C.C.C.M.n.C.",
"C.u.w.u.n.C.C.C.C.C.D x v v m b I W T U U | C.C.C.C.C.n.c.c.v.C.",
"C.u.w.w.w.c.C.C.C.C.v.N x v m U Y U G G L h.C.C.C.C.n.c.c.c.v.C.",
"B.x.w.w.q.t.n.C.C.n.t.w.x v G G U G G n r.y.n.C.C.B.x.x.x.x.n.C.",
"C.n.t.t.w.w.x.C.C.x.t.t.c n G G G G H m y.y.x.C.C.n.x.x.x.v.M.C.",
"C.C.n.i.u.t.i.C.C.i.u.i.X M B ( _ H K V i.i.x.C.C.n.x.v.n.B.C.C.",
"C.B.B.B.n.x.x.C.C.x.c.c.  o & d.Z.O O O p.n.v.C.C.n.n.B.B.n.n.C.",
"C.x.i.x.B.C.C.C.C.C.C.B.5 6 6 u u 7 7 8 n.C.C.C.C.C.C.n.x.i.i.C.",
"C.i.u.u.i.n.C.C.C.C.n.w 5 6 i p p p 7 y r n.C.C.C.C.n.i.w.w.u.C.",
"C.x.u.y.u.x.B.C.C.C.>.e 6 9 i C.n.a 9 y r k n.C.C.B.y.w.w.w.p.C.",
"C.n.u.u.u.u.x.C.C.x.j q 0 0 s C.M.l d f q w x.C.C.x.t.w.w.y.x.C.",
"C.C.v.i.u.u.x.C.C.p.i.6.X.i.C.C.C.V.p.X.+.w.y.C.C.u.w.t.y.x.C.C.",
"C.B.C.V.B.x.x.C.C.v.h.6.+.o.C.C.C.m.X.+.3.x.x.C.C.x.x.n.C.C.C.C.",
"C.x.x.n.C.C.C.C.V.v.i.r.O.O.;.-.=.:.] O.g.i.v.C.C.C.C.C.n.x.x.C.",
"C.x.t.u.x.B.C.x.w.>.A.J.J.F.+ # $ @ H.K.K.S.f.0.x.C.B.x.y.y.i.C.",
"C.x.u.y.u.x.C.=.% G.D.D.F.D.@ $ $ @ F.G.L.L.J.* ;.C.x.y.y.y.x.C.",
"C.x.u.u.u.u.v.x.0.* @ + @ + @ $ $ $ # $ z # * :.i.n.y.y.y.u.x.C.",
"C.B.x.i.u.u.x.C.C.t.q.q.w.t.0.$ =.w.t.i.i.x.x.C.C.p.y.y.i.x.B.C.",
"C.C.B.n.x.x.x.C.C.p.p.c.v.C.C.C.C.C.B.n.n.n.n.C.C.x.x.x.n.B.C.C."
};
