/* XPM */
static char *_a9ce63e2cae496fcb3e47bdec4f5166odVED0RmywS5opHo[] = {
/* columns rows colors chars-per-pixel */
"32 32 6 1 ",
"  c #351E00",
". c #713F00",
"X c #7B5627",
"o c #FCC634",
"O c #03B8D9",
"+ c #7EC3CF",
/* pixels */
"OOOOOOOOOO+O+++OOOOOOOOOOOOOO++O",
"+OOOOOOOO+OOOO++OOOOOOOOOOOO++OO",
"++++OOOO++OOOOO++OOOOOOOOO++OOOO",
"OOO+OOO++             OOOO+OOOOO",
"OOO++OO+O OOOOOOO+OOO OO+++OOOOO",
"OO  XXXXXXXXXXXXXXXXXXXXXXXXXOOO",
"O    XXXXXXXXXXXXXXXXXXXXXXXXXOO",
"O    XXXXXXXXXXXXXXXXXXXXXXXXXOO",
"O    .........................OO",
"O    .........................OO",
"O    .........................OO",
"O    .........................OO",
"O    .........................OO",
"+    .........ooooooo........ OO",
"+             ooooooo        OOO",
"O             ooooooo        OOO",
"O    .........ooooooo........O++",
"O    ........................++O",
"O    ........................OOO",
"O    ........................OOO",
"O    ........................OOO",
"O    ........................OOO",
"O    ........................OOO",
"+    ........................OOO",
"+    ........................OOO",
"O    ........................OOO",
"O    ........................OOO",
"O    ........................OOO",
"O    ........................OOO",
"O    ........................OOO",
"O    ........................OOO",
"OOOOOOOO+OOOOOO++OOO++OOOOOOOOOO"
};
