/* XPM */
static char *df357556f1a34c99bb3b51add2948da59ZuVrSUtbowTvAMA[] = {
/* columns rows colors chars-per-pixel */
"32 32 5 1 ",
"  c None",
". c #351E00",
"X c #713F00",
"o c #7B5627",
"O c #FCC634",
/* pixels */
"                                ",
"                                ",
"                                ",
"         .............          ",
"         .           .          ",
"  ..ooooooooooooooooooooooooo   ",
" ....ooooooooooooooooooooooooo  ",
" ....ooooooooooooooooooooooooo  ",
" ....XXXXXXXXXXXXXXXXXXXXXXXXX  ",
" ....XXXXXXXXXXXXXXXXXXXXXXXXX  ",
" ....XXXXXXXXXXXXXXXXXXXXXXXXX  ",
" ....XXXXXXXXXXXXXXXXXXXXXXXXX  ",
" ....XXXXXXXXXXXXXXXXXXXXXXXXX  ",
" ....XXXXXXXXXOOOOOOOXXXXXXXX.  ",
" .............OOOOOOO........   ",
" .............OOOOOOO........   ",
" ....XXXXXXXXXOOOOOOOXXXXXXXX   ",
" ....XXXXXXXXXXXXXXXXXXXXXXXX   ",
" ....XXXXXXXXXXXXXXXXXXXXXXXX   ",
" ....XXXXXXXXXXXXXXXXXXXXXXXX   ",
" ....XXXXXXXXXXXXXXXXXXXXXXXX   ",
" ....XXXXXXXXXXXXXXXXXXXXXXXX   ",
" ....XXXXXXXXXXXXXXXXXXXXXXXX   ",
" ....XXXXXXXXXXXXXXXXXXXXXXXX   ",
" ....XXXXXXXXXXXXXXXXXXXXXXXX   ",
" ....XXXXXXXXXXXXXXXXXXXXXXXX   ",
" ....XXXXXXXXXXXXXXXXXXXXXXXX   ",
" ....XXXXXXXXXXXXXXXXXXXXXXXX   ",
" ....XXXXXXXXXXXXXXXXXXXXXXXX   ",
" ....XXXXXXXXXXXXXXXXXXXXXXXX   ",
" ....XXXXXXXXXXXXXXXXXXXXXXXX   ",
"                                "
};
