/* XPM */
static char *result[] = {
/* columns rows colors chars-per-pixel */
"32 32 202 2 ",
"   c #001146",
".  c #00144D",
"X  c #081D4B",
"o  c #001653",
"O  c #001857",
"+  c #001A5C",
"@  c #08224C",
"#  c #1B254D",
"$  c #0E2A53",
"%  c #112D53",
"&  c #133255",
"*  c #17395B",
"=  c #262C50",
"-  c #262C52",
";  c #001C63",
":  c #001F6A",
">  c #01216E",
",  c #002273",
"<  c #00267C",
"1  c #0B2778",
"2  c #15347A",
"3  c #2E396E",
"4  c #1D415F",
"5  c #2E495F",
"6  c #1D4462",
"7  c #1D4374",
"8  c #254C68",
"9  c #27536E",
"0  c #29546E",
"q  c #3A546A",
"w  c #2A5976",
"e  c #2D5C75",
"r  c #32647C",
"t  c #3A667C",
"y  c #595559",
"u  c #5B7656",
"i  c #4D5168",
"p  c #56596C",
"a  c #416B7B",
"s  c #597072",
"d  c #6C8754",
"f  c #688A66",
"g  c #738A72",
"h  c #8BAD54",
"j  c #82A25B",
"k  c #8EB159",
"l  c #90B357",
"z  c #92B558",
"x  c #96BA5B",
"c  c #99BE5D",
"v  c #8AB16A",
"b  c #93B864",
"n  c #8CB77A",
"m  c #92BB70",
"M  c #9CC25F",
"N  c #9FC561",
"B  c #9AC473",
"V  c #A5CD65",
"C  c #A7D067",
"Z  c #A8D167",
"A  c #ACD569",
"S  c #AAD574",
"D  c #A7D379",
"F  c #002781",
"G  c #002985",
"H  c #082A83",
"J  c #002C8C",
"K  c #0A2D8B",
"L  c #002E93",
"P  c #013096",
"I  c #00319A",
"U  c #09339A",
"Y  c #143493",
"T  c #0134A0",
"R  c #225197",
"E  c #336886",
"W  c #3A7086",
"Q  c #3A758B",
"!  c #3B768B",
"~  c #3E7C92",
"^  c #3D799E",
"/  c #515884",
"(  c #467F8F",
")  c #587183",
"_  c #417E92",
"`  c #5C7F92",
"'  c #707287",
"]  c #5D67AB",
"[  c #6A72A8",
"{  c #588987",
"}  c #438399",
"|  c #46889D",
" . c #498B9E",
".. c #558997",
"X. c #5D909D",
"o. c #648495",
"O. c #7EAC86",
"+. c #7EB08F",
"@. c #77A996",
"#. c #74AB9A",
"$. c #478CA2",
"%. c #4C8DA2",
"&. c #498DA8",
"*. c #4B92A6",
"=. c #4E95AA",
"-. c #519AAD",
";. c #5B9BA8",
":. c #4D94B4",
">. c #4D96BD",
",. c #519DB2",
"<. c #529CBA",
"1. c #618FA2",
"2. c #6792A3",
"3. c #56A2B5",
"4. c #56A6BC",
"5. c #59A7B8",
"6. c #5AA9BC",
"7. c #6BADAD",
"8. c #68AAB7",
"9. c #78A5B4",
"0. c #72B8B4",
"q. c #77BBBA",
"w. c #7DC4B9",
"e. c #57A7C1",
"r. c #5BADC2",
"t. c #5DB1C4",
"y. c #5DB3C9",
"u. c #66B4C6",
"i. c #6DBBC4",
"p. c #64BACD",
"a. c #6BBECC",
"s. c #72B9CD",
"d. c #63BDD2",
"f. c #7BC5C1",
"g. c #78C6C7",
"h. c #7FC9C3",
"j. c #74C5CB",
"k. c #7FD0CF",
"l. c #65C1D5",
"z. c #6BC3D3",
"x. c #66C4DA",
"c. c #6AC5D9",
"v. c #6BC9DD",
"b. c #71C7D2",
"n. c #72CAD5",
"m. c #7ACDD1",
"M. c #7CC6D8",
"N. c #73CEDC",
"B. c #7CD1D5",
"V. c #7DD6DD",
"C. c #6BCCE1",
"Z. c #6DD0E6",
"A. c #6ED3EA",
"S. c #71D1E4",
"D. c #7CDAE4",
"F. c #84B994",
"G. c #8A98AB",
"H. c #9598AA",
"J. c #8A8FB4",
"K. c #88ADAD",
"L. c #9FA0AD",
"P. c #A1A3BA",
"I. c #AFB0B5",
"U. c #8CC49E",
"Y. c #8FC89F",
"T. c #99CC93",
"R. c #9DD194",
"E. c #9FD79F",
"W. c #A5D584",
"Q. c #A3D489",
"!. c #A3D692",
"~. c #A0D69B",
"^. c #89C7AB",
"/. c #95C0A0",
"(. c #99D6AA",
"). c #84C9B7",
"_. c #8BCBB1",
"`. c #8CD1BB",
"'. c #94D6B9",
"]. c #81BCCC",
"[. c #A2B8C2",
"{. c #80CECA",
"}. c #99C5C9",
"|. c #8ED7C5",
" X c #84D3CD",
".X c #8CD8CA",
"XX c #91D8C1",
"oX c #89CCDD",
"OX c #99CEDD",
"+X c #87D9D4",
"@X c #88D9D1",
"#X c #81D7D9",
"$X c #83D9DA",
"%X c #B6CBD3",
"&X c #A5DAE5",
"*X c #CBCED1",
"=X c #CFE0E6",
"-X c #C0E6F0",
";X c #DEEFF3",
":X c #E6EFF3",
">X c #EBF4F7",
",X c #F4F9FA",
/* pixels */
"A V V Z A A A A E..X#X XC C C '.XX.X#X(.A A !.W.A A A A Z V V A ",
"A x z c V A D D #X_.+.O.{ -.x.Z.x.y...s d j _.#XQ.).R.V N x x A ",
"A z h v q.j.{.^.N.Z.A.A.v.x.x.l.x.p.OX-XOX9.u O. X{.f.x l h x A ",
"A x h F.g.m.K.N.C.l.e.=.Q e 9 ,.! r o.K.%X}.d.*.8.q.F.v h h c A ",
"A B v w.N.g 0.C.4.| * X       r.e       0 G.:Xy.a.y S.N.i.F.M A ",
"R.h.z.f.f X.C.$.5.<.t   + 2 :.<.%         @ & } u.5 ;.7.{.{.T.A ",
"D _.m.).A.-X[.8 6.r d.e.r.s.>.K .       > L F =.=.w <.c.).T.S A ",
"A B {.i.A.9.p | =.o R ^ W *   . + > o   . @ F >.| 9 4.x.7.{.#X!.",
"_.j.q.oX>X$.:.8.R F < - ' , J I P P L L 1 L.  ^ 3.  r Q x.7.n S ",
"{.F.C.c.;.=.| L F J + J I I I I J , J J G K ; & y.Q 8 9 =.u.0.Z ",
"!.j.v.p.p # 3 L J , J < L L G F F L F < J < L . e 6.p.3.,.r m.!.",
"'.z.d.2.p i / < O J < G I L I L : O G J : I G J . T w 6.~ W j.(.",
".Xa.x.t i = J 3 P.K ; I L : . H [ G + J < : J J > < :.%.% 4.z.!.",
"!.5.p.0 i   J J.9.H.G T : , L L < H < o I + J : G + <.!   } c.R.",
"D. .4.X P   J / ] . I I ; L + G I , L   I : J ; J   :.|   Q l.|.",
"D.=.y.+ L   J J Y ; I I F G , G L < L > P < < : G # ) ,X  t N.XX",
"$X4.,.r * = o < P ; P P J < P L L L F G > L : J H H.X u.( 1.>X(.",
"#Xc.t.3.6.2.    P o P J I F F L I L < J > J O I       8 t.s.a .X",
"$Xz.*   e a.P   J , ; L P L P P L I J : I > L F       %.t.d...@X",
"+Xa.$.  X a.Y < + P + : L L J J < < G J > L L O   . &.8.Q ,.u '.",
"XXi.6.  # s.* I > 1 [ . : L J J G < > < P U ,     , u.4 8 d.{ W.",
"~.b.d.E a s., ; J : F J : o : G J L P P Y H.-   o P p.@   C.q.@X",
"D B.a.v.6.a.>.E ; U ; > J J J J J J G ; H.*XI.  . > 5.! ` ,XF.XX",
"Z ).b.W d.r &.,X3.2 J : J J , + + O > L K %X         .4.l.@.b A ",
"W.@Xn 8.y.,.. q -._ ; +   + o   G J F > . .       & =.3.8.k C A ",
"S $XXXF.v.C.| 8 _ =.o ;               ; G P     * t ( ;X/.(.D A ",
"A ^.B. X0.z.].:X=.=.; R 7     ; , ;   J <     6 v.&XN.&X`. XB Z ",
"A M x ).{.F.S.M.=X9.3.6.6.%.@ > F :           $.i.=XF.m n n c Z ",
"Z M l l z b B.z.K...*.6 * t.r         r ~ $ $ z.>X^.k.^.z z c A ",
"A N z l l z `.n.z.v.A.x.=.| 5.t.y.w ,.x.l.4.3.v.}.Y.F.l z z M A ",
"A Z M x l z m h.U.#.#.z.v.c.t.} ~ q l.{ f n.m.T.).w.n l z M Z A ",
"A A C V N M M R.j.U.x M `.@X$X$XV.D.D.#X$XV._.A A M M N V Z A A "
};
