/* XPM */
static char *result[] = {
/* columns rows colors chars-per-pixel */
"32 32 207 2 ",
"   c #001146",
".  c #04134A",
"X  c #0A134E",
"o  c #081D4A",
"O  c #0E1452",
"+  c #111556",
"@  c #111C54",
"#  c #16165B",
"$  c #18175E",
"%  c #0A244E",
"&  c #19244D",
"*  c #142952",
"=  c #143356",
"-  c #17395A",
";  c #193B5B",
":  c #272C52",
">  c #1A1760",
",  c #1D1964",
"<  c #221A6B",
"1  c #261B71",
"2  c #291C75",
"3  c #2C1E7B",
"4  c #27296E",
"5  c #302D78",
"6  c #1D415F",
"7  c #1E4462",
"8  c #234A66",
"9  c #274E6A",
"0  c #26536E",
"q  c #29556E",
"w  c #355865",
"e  c #2B4974",
"r  c #2B5B75",
"t  c #2C5C75",
"y  c #31647B",
"u  c #3B677B",
"i  c #44475F",
"p  c #58704E",
"a  c #5C7A5E",
"s  c #4F556D",
"d  c #4E6B75",
"f  c #69844E",
"g  c #6B9375",
"h  c #8BAD54",
"j  c #8EB056",
"k  c #91B457",
"l  c #92B559",
"z  c #95B95B",
"x  c #99BE5D",
"c  c #8EB361",
"v  c #8DB56D",
"b  c #93BA64",
"n  c #89B476",
"m  c #94BE73",
"M  c #9CC25F",
"N  c #9FC561",
"B  c #94C07D",
"V  c #A0C662",
"C  c #A5CD65",
"Z  c #A7D066",
"A  c #A9D167",
"S  c #ACD569",
"D  c #A4CF75",
"F  c #AAD574",
"G  c #A7D379",
"H  c #301F81",
"J  c #322185",
"K  c #36228B",
"L  c #38238F",
"P  c #3C2A8E",
"I  c #3B2493",
"U  c #3E269A",
"Y  c #3A3891",
"T  c #433B81",
"R  c #40279D",
"E  c #42299E",
"W  c #423F9F",
"Q  c #4227A0",
"!  c #4429A4",
"~  c #482FA6",
"^  c #472AA9",
"/  c #492BAE",
"(  c #4C2DB3",
")  c #4F2EB8",
"_  c #502FBB",
"`  c #385A89",
"'  c #346B83",
"]  c #3B748A",
"[  c #3B758B",
"{  c #3E7C92",
"}  c #574F90",
"|  c #4F788F",
" . c #447E97",
".. c #72728A",
"X. c #5350BD",
"o. c #695EAA",
"O. c #5177B5",
"+. c #7B71B9",
"@. c #7566C1",
"#. c #598A87",
"$. c #448399",
"%. c #46889D",
"&. c #498A9E",
"*. c #558997",
"=. c #4F909F",
"-. c #6D9D86",
";. c #648495",
":. c #619E9F",
">. c #79AB97",
",. c #7DB194",
"<. c #4A8EA2",
"1. c #498BA4",
"2. c #5081AF",
"3. c #4C91A5",
"4. c #4E95AA",
"5. c #519AAD",
"6. c #5999AB",
"7. c #519DB3",
"8. c #5899BB",
"9. c #56A3B5",
"0. c #56A6BB",
"q. c #5AA7BB",
"w. c #5AA9BC",
"e. c #63A6AB",
"r. c #7DBBA8",
"t. c #77A5B4",
"y. c #6CB3B6",
"u. c #6AB6BD",
"i. c #74B8B3",
"p. c #77C0BE",
"a. c #7CC3BB",
"s. c #5BA5C3",
"d. c #5EADC3",
"f. c #5EB1C4",
"g. c #5DB4C9",
"h. c #69B4C7",
"j. c #6CBBC3",
"k. c #63B6CB",
"l. c #64BACC",
"z. c #6BBCCB",
"x. c #72B8C8",
"c. c #64BDD2",
"v. c #68BDD3",
"b. c #76C2C2",
"n. c #7AC4C1",
"m. c #72C4CB",
"M. c #7BCACB",
"N. c #65C1D6",
"B. c #6CC3D4",
"V. c #66C4DA",
"C. c #6AC5D9",
"Z. c #6CCADE",
"A. c #79C6D7",
"S. c #74CBD4",
"D. c #79CDD2",
"F. c #72CFDE",
"G. c #7ED1D2",
"H. c #7CD4DB",
"J. c #6BCCE1",
"K. c #6ED1E6",
"L. c #6FD3EA",
"P. c #72D1E3",
"I. c #7CD9E4",
"U. c #88B988",
"Y. c #87BB95",
"T. c #8E9CA6",
"R. c #9895B6",
"E. c #8CA8B4",
"W. c #A1A0B0",
"Q. c #AFB0B5",
"!. c #8DC193",
"~. c #95CA98",
"^. c #9DD196",
"/. c #9FD79F",
"(. c #A5D484",
"). c #A3D489",
"_. c #A3D691",
"`. c #A0D69B",
"'. c #8EC9A6",
"]. c #82C1AD",
"[. c #94CCA2",
"{. c #99D6AB",
"}. c #82C4B4",
"|. c #8ACBB4",
" X c #83C8BB",
".X c #8FD5BF",
"XX c #94D8BA",
"oX c #8E86C6",
"OX c #81BBCB",
"+X c #A4AEC2",
"@X c #82CCC3",
"#X c #8ED7C5",
"$X c #85D3CD",
"%X c #8CD8CB",
"&X c #91D8C1",
"*X c #90C6D6",
"=X c #99CEDD",
"-X c #82D5D2",
";X c #85D8D5",
":X c #83D9DA",
">X c #ACCECC",
",X c #A9D9E6",
"<X c #CBCDD2",
"1X c #CFE7EE",
"2X c #E6EFF3",
"3X c #EBF4F7",
"4X c #F4F9FA",
/* pixels */
"S C C S S S S S S XX:X;X;XI.I.:X:XH.$X.XS S [.M.^.S S S S C C S ",
"S z l M C (.|.|.~.G.S.g #.B.w  .%.f.C.F.B.r.Y.[.n.F S Z N l z S ",
"S l h h z ~.[.&XF.y.0.c.V.9.r g.f.0.&.4.v.L.Z.M.S.&XC z j j l S ",
"S z h h a.G.E.4XN.* % { y         y f.- 8 1.*.E.B.D.c h h k b S ",
"S M n n g -.1Xp.<.        .   .   % %.q.q.7.t.1XA.P.-.M.}.l N S ",
"S D $X}.>XP.,XS.6       < 3 H H .     8 8   4.5.2XOXC.y.M.:X{.S ",
"S F {.'.2X$.y 6     $ ! ^ R R I O       3 ! 8. .8 %.V.C.Y.#X:XF ",
"S N l y.9.5.=     $ E K @     O , < > . X , O.q.s . 7.g.u.n -X(.",
"S b ,.V.q.&.  $ I I I : ..H ! ) ( ( / ^ P W.; 8.4X%.y c.' B.a.S ",
"&X!.4X| ] q.  ! I ! , ! ( ( ( / R H R ^ R E <   y 3.l.d.J.l.D.F ",
";Xi.P.. % k.4 ^ ! K E L ^ / R L R ! I H R K ^ O   X x.d ' c.S./.",
"_.-.c.8 ; k.I L $ Q L I _ / / / 3 $ R ! 1 ( R R O _ A.&   0.b.XX",
"XXa 7.] q.<.! T +XR < ( / 3 + K +.E $ R H 3 ! ! 3 Y v..   1.m.-X",
";X#.l.d.%.  ! R.oXR.R _ 2 H ^ ( H R H < ) $ ^ 3 R < v.r   7 C.;X",
"%Xu B.d.X.. ! } @.+ ( ( < ^ > I _ H ^ . ) 2 R < R   t.s.9.w.C.;X",
"{.4X:. .x.% Q Q / < ( ( L ! H R ^ I ^ 3 ( L L 2 R & & 6 y 7.0.I.",
"&XF.y o 4X| # K ( < ( ) ! L ( ^ ^ ^ R R 3 / 2 ! I T.    . k.<.I.",
"#Xc.]   $.<.  . ( O ( U ( L L ! ( ^ H R 3 ^ > / O       o 9.<.I.",
"`.C.{   | 5.(   U J 1 Q / / ( ( / / ! 2 / H / L       i 9 c.e._.",
"_.z.0.= &.=.Q K , ( , 3 / ^ ^ U L L R ! 3 ^ / >   + T i d V.z.%X",
"{.j.[ { w.q @ ( 3 J +.O 2 / ^ ! R L 3 H ( ) H     } o.s 6.k.B..X",
"`.S.y 7.9.l.d.` Q 3 I ~ 2 + 2 U ! ^ / / ~ R.:   # } 5 s k.J.m._.",
"A ].h.4.0 e O.k.4 ) < 3 U ^ ! ! ! ^ R 1 R.<XQ.  X 2.4.6.B.K.r. X",
"S B y.Z.[ ' , s.2.2 ! 2 U ! J , $ $ 3 ! ~ <X  8 w.7.1.3X*Xy.x.|.",
"_.;X@Xe.Z.0.r $.4.  < <   < #   R ! W  .[ 8   5.%.d t.L.f.M.D S ",
"S F /.a.C.9.t 4.4.  + <       o % 4.k.s.s.l.y w.9 +X1XK.a.M.|.G ",
"S !.a.G.r.e.w f.$.= 4 ! <     4 s.5.= ! L u 9.0.<.Z.:.v @XB.n.).",
"S b Y.b.P.P.a l.g.2XT.` >     } s.2     % ; %.0.Z.h.g :X Xv m S ",
"A N k k c Y.n.y.&.N.*X>XE.;.y [ 7.0 t [ 4.d.c.J.L.].M.m.Y.k M S ",
"S N z k k b.M.$X,.p t.=X,X=XN.V.v.J.V.J.L.K.K.F.'.a.m.a.v l M S ",
"S Z N k k U.a.(.-XE.f p a =.k.V.K.N.6.#.g >.].;XF B c k l M Z S ",
"S S Z C N M M S (.~.x V [.;X%X&XXXS S C $XH.$X/.A M M N C A S S "
};
