/* XPM */
static char *result[] = {
/* columns rows colors chars-per-pixel */
"32 32 6 1 ",
"  c #351E00",
". c #713F00",
"X c #7B5627",
"o c #FCC634",
"O c #03B8D9",
"+ c #7EC3CF",
/* pixels */
"OOOOOOOOOO+O+++OooooooOOOOOOO++O",
"+OOOO ..........oooooo......... ",
"++++  ..........oooooo........  ",
"OOO  ........................  O",
"OO  ......................... OO",
"O   ........................  OO",
"O   ...XXXXXXXXXXXXXXXXXXX.. OOO",
"O   ..XXXXXXXXXXXXXXXXXXXXX..OOO",
"O    .XXXXXXXXXXXXXXXXXXXXXX.OOO",
"O    .XXXXXXXXXXXXXXXXXXXXXX.OOO",
"O    XXXXXXXXXXXXXXXXXXXXXXXXOOO",
"O    XXXXXXXXXXXXXXXXXXXXXXXXOOO",
"O    XXXXXXXXXXXXXXXXXXXXXXXXOOO",
"+    XXXXXXXXXXXXXXXXXXXXXXXXOOO",
"+    XXXXXXXXXXXXXXXXXXXXXXXXOOO",
"O                            OOO",
"O    ........................O++",
"O    ........................++O",
"O    ........................OOO",
"O    ........................OOO",
"O    ........................OOO",
"O    ........................OOO",
"O    ........................OOO",
"+    ........................OOO",
"+    ........................OOO",
"O    ........................OOO",
"O    ........................OOO",
"O    ........................OOO",
"O    ........................OOO",
"O    ........................OOO",
"O    ........................OOO",
"OOOOOOOO+OOOOOO++OOO++OOOOOOOOOO"
};
