/* XPM */
static char *_6615d357b4f492bdd59748044f19694RHtKmgFigz9NA3Wf[] = {
/* columns rows colors chars-per-pixel */
"32 32 194 2 ",
"   c #33393F",
".  c #620C3E",
"X  c #4A3F3A",
"o  c #7A283D",
"O  c #555A2E",
"+  c #595D2B",
"@  c #545931",
"#  c #7A5032",
"$  c #745B33",
"%  c #646F35",
"&  c #756535",
"*  c #677537",
"=  c #001146",
"-  c #0E1E47",
";  c #00144C",
":  c #011752",
">  c #001856",
",  c #001A5C",
"<  c #122147",
"1  c #192847",
"2  c #1E2D48",
"3  c #142D54",
"4  c #193452",
"5  c #282F41",
"6  c #29344E",
"7  c #001C63",
"8  c #001F6A",
"9  c #00216F",
"0  c #10286A",
"q  c #002374",
"w  c #0B2674",
"e  c #00257A",
"r  c #283A7C",
"t  c #4D0E42",
"y  c #5C0C40",
"u  c #7C1254",
"i  c #4D3545",
"p  c #5A3D47",
"a  c #792E40",
"s  c #6A3945",
"d  c #00474A",
"f  c #0F474A",
"g  c #00484B",
"h  c #1D494D",
"j  c #00514B",
"k  c #004E51",
"l  c #005154",
"z  c #085457",
"x  c #015659",
"c  c #04585B",
"v  c #0B5A5C",
"b  c #1E5558",
"n  c #115C5E",
"m  c #27454A",
"M  c #384848",
"N  c #295A4D",
"B  c #3E514A",
"V  c #215255",
"C  c #2D5655",
"Z  c #3C5358",
"A  c #326756",
"S  c #145D60",
"D  c #24686B",
"F  c #206D70",
"G  c #336C76",
"H  c #287073",
"J  c #367679",
"K  c #3B7C7E",
"L  c #4E464D",
"P  c #51474E",
"I  c #5A444C",
"U  c #42554A",
"Y  c #455A4C",
"T  c #465359",
"R  c #4C634D",
"E  c #4F6F4F",
"W  c #576248",
"Q  c #546B4E",
"!  c #5E6A48",
"~  c #59764D",
"^  c #47765C",
"/  c #587754",
"(  c #7B674A",
")  c #4A4671",
"_  c #527C6E",
"`  c #417B78",
"'  c #8C0132",
"]  c #890C33",
"[  c #9A0037",
"{  c #9E0039",
"}  c #9B0638",
"|  c #871434",
" . c #921738",
".. c #9D1939",
"X. c #A6003C",
"o. c #872739",
"O. c #8C3237",
"+. c #8D583D",
"@. c #89633F",
"#. c #811153",
"$. c #9D125A",
"%. c #B40142",
"&. c #BD0045",
"*. c #A51B42",
"=. c #AD1B41",
"-. c #B91044",
";. c #932C46",
":. c #873549",
">. c #AD2C41",
",. c #B52344",
"<. c #991866",
"1. c #8C7342",
"2. c #957144",
"3. c #5C8458",
"4. c #67824E",
"5. c #728F4F",
"6. c #6A8553",
"7. c #688652",
"8. c #718E53",
"9. c #758D5A",
"0. c #7C9C53",
"q. c #7A9855",
"w. c #56897C",
"e. c #779367",
"r. c #938148",
"t. c #8C974E",
"y. c #84A555",
"u. c #87A855",
"i. c #8BAD54",
"p. c #82A25B",
"a. c #96A855",
"s. c #8EB156",
"d. c #8EB25E",
"f. c #90B357",
"g. c #92B559",
"h. c #9EB35A",
"j. c #95B95B",
"k. c #99BE5D",
"l. c #A2B15B",
"z. c #96AB65",
"x. c #96B96A",
"c. c #8FBC77",
"v. c #AABD6B",
"b. c #9CC15F",
"n. c #9EC461",
"m. c #9CC66E",
"M. c #9FCA70",
"N. c #A1C762",
"B. c #A4CC65",
"V. c #A7D066",
"C. c #A9D167",
"Z. c #ACD569",
"A. c #DAEA7A",
"S. c #002985",
"D. c #002C8C",
"F. c #092D8B",
"G. c #002E93",
"H. c #00319A",
"J. c #053299",
"K. c #143390",
"L. c #3C7D82",
"P. c #447E81",
"I. c #6E76A9",
"U. c #3B8184",
"Y. c #42878A",
"T. c #579085",
"R. c #438F92",
"E. c #479598",
"W. c #619B89",
"Q. c #77AB85",
"!. c #65A797",
"~. c #4F9FA3",
"^. c #4FA0A3",
"/. c #51A2A4",
"(. c #5AA3A2",
"). c #52A5A9",
"_. c #54A9AD",
"`. c #56AEB1",
"'. c #58B2B6",
"]. c #5AB5B9",
"[. c #5CB9BD",
"{. c #78AEB1",
"}. c #9598B1",
"|. c #8CB8BA",
" X c #90BABC",
".X c #AFB0B5",
"XX c #F1FF82",
"oX c #AAC8C9",
"OX c #B5CFD0",
"+X c #C7C7CD",
"@X c #C1D5D7",
"#X c #CDDDDE",
"$X c #DBE6E7",
"%X c #F8FAFA",
/* pixels */
"Z.B.B.Z.Z.Z.Z.Z.Z.Z.Z.Z.Z.C.C.Z.Z.B.B.Z.Z.Z.Z.Z.Z.Z.Z.Z.Z.B.B.Z.",
"Z.j.g.b.B.Z.Z.Z.Z.Z.Z.C.c.Q.!.(.(.!.Q.c.B.Z.Z.Z.Z.Z.Z.V.n.j.j.Z.",
"Z.g.i.i.j.B.Z.Z.Z.Z.B.Q.` E.[./.~.~.~.~.Q.m.Z.Z.Z.Z.V.j.s.i.j.Z.",
"Z.k.i.@.] t.Z.Z.C.x.W.Y.~.`.).~.~.~.~.~.~.W.x.V.Z.M.j.s.i.s.k.Z.",
"Z.b.s.O.] +.b.n.d.w.Y.~.{.(.~.~.~.~.oX{.~.~.T.d.N.n.s.s.i.f.n.Z.",
"Z.Z.b.i.o.t.u.0._ Y.R.~.$X|.~.~.~.~.OX%X{.~.~._ p.u.u.s.j.n.Z.Z.",
"Z.Z.Z.V.* d.8.E G L.~.~.~.~.~.~.~.~.~.@X@X~.K L.R 9.g.B.C.Z.Z.Z.",
"Z.V.B.V.* 0.R 4 J U.'.~.~.~.~.~.~.~.~. X$X~.R.G 4 R p.N.B.k.j.Z.",
"Z.n.n.d.% C v k L.Y.]./.~.~.~.~.~.~.~. X#X/.[.L.g g N / 0.s.g.Z.",
"Z.g.7.D R z g g K R.[.'.).~.~.~.~.~.~.~.~._.`.K g g d d j ~ y.Z.",
"j.^ v c x k g g D J ].]._.~.^.^.~.~.~.~.~./.).P.g g g d g d A g.",
"3.S x x A.v.k M a H J `.[.'.^./.~.~.~.~./.R.J o.m g v.A.d d d 3.",
"^ v c S z.e.l g g g l H D H K E.~.E.R.U.F l g g g g 9.z.g g g E ",
"( Z z S v n S k l 9.N g g | g g g g ] g g N 9.g g g g g g g M ( ",
"2.o I V v v c v c XXz.g g m g 9.9.g g g g z.XXg g g g g f p o @.",
"l.+.' o.s P h S v v x x l l l z.z.g g g g g g g g h P s O.' +.l.",
"Z.a.1.' ' [ ] a L P C V V b z c n b C Z Z Z P I ;.;.' ' ' r.h.Z.",
"Z.N.f.i y O...%.[ { X.X.[ o :.:.:.*.%.%.&.&.&.%.X. .o.. i b.Z.Z.",
"Z.Z.B.U 5 + ) y u #...-.....} %.%.-.,.>.,.=.<.$.t X +   Y V.Z.Z.",
"Z.C.C./ + + D.e , J.> W * $ # # # & % % W G.G.> = : @ O ~ V.V.Z.",
"Z.x.k.6.@ 5 ; G.9 w I.; T ! % % % % ! T H.J.e = = q r O 4.g.j.Z.",
"Z.j.f.q.U S.q , D.8 e D.8 : 8 S.D.H.G.H.K.}.6 = : D., B 5.i.g.Z.",
"Z.k.f.y.Q 3 J.q , H.8 8 D.D.D.D.D.D.S.7 }.+X.X= ; 8 - Q 0.i.k.Z.",
"Z.B.g.s.q.Y 3 D.e 8 D.8 S.D.q 7 , > q D.F.+X= = = 1 Y 5.u.g.b.Z.",
"Z.Z.B.j.i.6.U 2 : = 7 7 = , : = S.D.S.9 ; = = = 5 B 4.y.f.b.Z.Z.",
"Z.Z.Z.C.B.g.8.Q 2 ; : , = = = = = = = 8 S.J.= 2 R 8.d.B.Z.Z.Z.Z.",
"Z.b.b.B.Z.Z.N.p.Q < , D.7 = = , 9 , = D.e = < Q p.m.Z.Z.B.b.k.Z.",
"Z.j.f.j.n.V.Z.N.d.6.Y 0 , = = 9 S.9 = = < Y 7.d.B.Z.B.b.g.g.j.Z.",
"Z.k.g.f.f.n.C.Z.V.b.0.~ R B 5 1 1 6 Y Q 4.y.x.V.Z.Z.b.f.g.f.k.Z.",
"Z.N.g.f.f.g.N.Z.Z.N.s.i.i.s.N.Z.Z.B.b.b.k.b.V.Z.Z.N.g.f.f.g.b.Z.",
"Z.B.b.j.g.g.x.Z.Z.j.i.i.s.b.V.Z.Z.C.N.b.b.b.N.Z.Z.b.f.g.g.b.V.Z.",
"Z.Z.V.B.N.k.N.Z.C.b.b.b.N.V.Z.Z.Z.Z.C.V.B.N.N.Z.Z.b.b.b.B.Z.Z.Z."
};
