/* XPM */
static char *_a17bb626e0341599331df7ae14ed219gXnDMO71SX88Jppy[] = {
/* columns rows colors chars-per-pixel */
"32 32 41 1 ",
"  c #8AAB53",
". c #8AAC53",
"X c #8BAD54",
"o c #8CAE54",
"O c #8EB055",
"+ c #8EB056",
"@ c #8FB256",
"# c #90B357",
"$ c #91B457",
"% c #91B458",
"& c #92B558",
"* c #93B659",
"= c #94B759",
"- c #94B85A",
"; c #95B85A",
": c #96BA5B",
"> c #97BB5B",
", c #97BC5C",
"< c #98BC5C",
"1 c #99BD5C",
"2 c #9ABE5D",
"3 c #9AC05E",
"4 c #9DC25F",
"5 c #9DC35F",
"6 c #9DC360",
"7 c #9EC360",
"8 c #9EC460",
"9 c #A0C761",
"0 c #A0C762",
"q c #A3CA63",
"w c #A4CB64",
"e c #A4CC64",
"r c #A5CC64",
"t c #A7CF66",
"y c #A7D066",
"u c #A8D067",
"i c #A8D167",
"p c #ABD368",
"a c #ABD468",
"s c #ABD469",
"d c #ACD569",
/* pixels */
"drrsddddddddaiiddrraddddddddsyrd",
"d;*4rddddddir55sd;;5rsdddddi4;;d",
"d* o;rddddi5<<5ss*.O;rddddr;+X;d",
"d,. .*iddi5<<<qas,.. =yddi;X++<d",
"d5+..X4ddq<<<<rdd5$. X4dd5+++$5d",
"ds8$X *ds4<33qsdda5@o.*dd;.+$5dd",
"ddsir44sdeqpdddddddyr44dd55rpddd",
"dqrisdddsssdr3<dd5qyidddddssr<<d",
"dq46rpdddsp6$X;dd5<<qyddddd3+ *p",
"dq868rpsds6o+o,dd8;<;qdddd<. o;s",
"dr0466udsqo+.$5ddq<<,1rddq..X+6p",
"diq066rds<++*<yddy53<;5dd;oX+<rd",
"dpprrrrdd3<8qrsddsyrq4qsd<;40ysd",
"d46pdpddddssyq8ddqqydsssddddprrd",
"d=o*qdddddsr;+;dd<*,qsdddddi640d",
"d=  X6ddddqo+o,dd<$$=rddddr446qd",
"d<o..+rdsr++++3dd4*$$;rsdi4343qd",
"dq*...3ds3+++;rddr;$*$4sdq434qrd",
"sdq,*+;sd,-;<rsdddr8,;<ddq5qridd",
"dryyr55dd55ryyysdrryrr8ddrriyrrd",
"d<<8iasddddiq<3sd;*4rdddddsr6==d",
"d<*;3rddddy3,-3dd= o;rdsddr;oX-p",
"s3#$$<iday3;-;8dd<. X*ysdy*.  ,d",
"sq-*$@qdaq;;;,qdd6+. X4sd5+.X*6d",
"saq;$$,ss3;-<rsddd8$o.$dd*oo*8dd",
"ssaarqqsprqrsssddddir85ds55ryssd",
"d34radidddddq<<sdqrrsdddddddr4<d",
"d,$;qidddpu5+X-ds4<4riddddi8*$<d",
"d<*$+4ydsa<ooo,dsq<33rpssi4$*+3d",
"d5*$$;rdsqoooo4ddq33<8esdq*$+*5s",
"dp4;$$<dd;oo$<iddiq3<3qdd3$$;4id",
"ssyqq35ds4<4qrdddssrr8qdd338qidd"
};
