/* XPM */
static char *c99a927bcc8d444d9509cacb648f6ce58VBWISWDtjrkPtyB[] = {
/* columns rows colors chars-per-pixel */
"32 32 2 1 ",
"  c #03B8D9",
". c #97D6E2",
/* pixels */
"       ......             .     ",
"     ...     ...         ...    ",
"    ..         ...      .. ..   ",
"   ..           ....  ...   .   ",
"   .          ...  ...........  ",
"  ..       ...        ....   .. ",
" ...     ...           ..     ..",
"....    ..              .     ..",
".  .  ...                .     .",
"   .....                 ..    .",
"     ...                 ..   ..",
"      ..                  .   . ",
"       .                  . ... ",
"       .                  .. ...",
"       .                  .    .",
"       ..                ..     ",
"        .                .      ",
"       ...              ..      ",
"       . .              .       ",
"     ...  ..           ..       ",
"   ...     ...   ....  ...      ",
". ....       .....  ......      ",
"... .       ...          ...    ",
".   ..      .              ..   ",
"     .     ..               ..  ",
"     .......                 .. ",
"       ....                   ..",
"        ..                     .",
"        .                      .",
"       ..                       ",
"       .                        ",
"       .                        "
};
