/* XPM */
static char *_c75c9ddcbba43a4d8a9069a59279599mJciHSOf8sjGPpNm[] = {
/* columns rows colors chars-per-pixel */
"32 32 6 1 ",
"  c #343535",
". c #4AFF44",
"X c #918562",
"o c #03B8D9",
"O c #7EC3CF",
"+ c #D1BD86",
/* pixels */
"oooooooooooOoo    ooooooOOooooOO",
"oooooooooooOo      ooooooOOOOOOo",
"oooooooooooOo  ++  ooooooOoooooo",
"oooooooooooOo ++++ oooooOOoooooo",
"oooooooooooOoo+  +oooooOOooooooo",
"ooooooooooOOOoo++ooooooOoooooooo",
"OoooooooOOoooOXXX+ooooOOoooooooo",
"OooooooOOoX..+++++..+XOOoooooooo",
"OOOOOOOooo+..+X+X+..++Xooooooooo",
"OOOOOOooo+++.++X++..+++Xoooooooo",
"ooOOOooo++++.++X++.+++++oooooooo",
"oooOOooo++++..XXXX.XX+++oooooooo",
"oooOooo++XX+..+++..XoX++oooooooo",
"oooOOo+++ooX+.+++..+oo++oooooooo",
"ooooOo+++oo++..++.++oo++Oooooooo",
"ooooOo+++oo++..++.++OO++oOOooooo",
"ooooOO++ooo+++....++Oo++ooOOOooo",
"oooooo++Ooo+++...+++oo+++oooOOOO",
"oooooo++Ooo+++..X+++oo+++oooooOo",
"oooooo++OOO+++XoXX++ooooooooooOo",
"ooooooooOoo++XOooX++ooooooooooOo",
"ooooooOOOoo++XOOO+++oooooooooOOo",
"oooooOOoooo+++ooo+++OooooooooOoo",
"ooooOOooooo+++ooo+++OOoooooOOOoo",
"OooOOoooooo+++ooo+++oOOOOOOOoooo",
"OOOOOoooooo+++ooo+++ooOooooooooo",
"oooOooooooo+++ooo+++ooOOoooooooo",
"oooOooooooo+++ooo+++oooOoooooooo",
"oooOooooooo++XoooX++ooooOooooooo",
"oooOoooooo++XXoooX+++oooOOoooooo",
"oooOooooo+++XooooXX+++oooOoooooo",
"oooOoooooooooooooooooooooOoooooo"
};
