/* XPM */
static char *_f982a74f84544b8aeacf5f7dc232a21JX2RDjJFyiofwn9M[] = {
/* columns rows colors chars-per-pixel */
"32 32 5 1 ",
"  c None",
". c #343535",
"X c #4AFF44",
"o c #918562",
"O c #D1BD86",
/* pixels */
"              ....              ",
"             ......             ",
"             ..OO..             ",
"             .OOOO.             ",
"              O..O              ",
"               OO               ",
"              oooO              ",
"          oXXOOOOOXXOo          ",
"          OXXOoOoOXXOOo         ",
"         OOOXOOoOOXXOOOo        ",
"        OOOOXOOoOOXOOOOO        ",
"        OOOOXXooooXooOOO        ",
"       OOooOXXOOOXXo oOO        ",
"      OOO  oOXOOOXXO  OO        ",
"      OOO  OOXXOOXOO  OO        ",
"      OOO  OOXXOOXOO  OO        ",
"      OO   OOOXXXXOO  OO        ",
"      OO   OOOXXXOOO  OOO       ",
"      OO   OOOXXoOOO  OOO       ",
"      OO   OOOo ooOO            ",
"           OOoo  oOO            ",
"           OOo   OOO            ",
"           OOO   OOO            ",
"           OOO   OOO            ",
"           OOO   OOO            ",
"           OOO   OOO            ",
"           OOO   OOO            ",
"           OOO   OOO            ",
"           OOo   oOO            ",
"          OOoo   oOOO           ",
"         OOOo    ooOOO          ",
"                                "
};
