/* XPM */
static char *_ba45974d2dd4f22e1f534e804c4a3d5BYcpAmXLyERl7gJO[] = {
/* columns rows colors chars-per-pixel */
"32 32 177 2 ",
"   c #7A283D",
".  c #7A5032",
"X  c #745B33",
"o  c #5B612C",
"O  c #566C32",
"+  c #596F34",
"@  c #5B7335",
"#  c #5F7738",
"$  c #5C7A3A",
"%  c #636E33",
"&  c #756535",
"*  c #657134",
"=  c #687538",
"-  c #697738",
";  c #647D3B",
":  c #6B7B3A",
">  c #5A3D47",
",  c #792E40",
"<  c #6A3945",
"1  c #00474A",
"2  c #0F474A",
"3  c #00484B",
"4  c #004E51",
"5  c #005154",
"6  c #085255",
"7  c #015659",
"8  c #04585B",
"9  c #0B5A5C",
"0  c #1E5558",
"q  c #115C5E",
"w  c #25464B",
"e  c #354247",
"r  c #2D5D4E",
"t  c #215255",
"y  c #2C5458",
"u  c #3C5358",
"i  c #356958",
"p  c #145D60",
"a  c #24686B",
"s  c #206D70",
"d  c #287073",
"f  c #36777A",
"g  c #3B7C7E",
"h  c #4E464D",
"j  c #54484F",
"k  c #4C6A4D",
"l  c #4F7A55",
"z  c #557A57",
"x  c #7B674A",
"c  c #417B78",
"v  c #8D0031",
"b  c #890C33",
"n  c #9A0037",
"m  c #9B0638",
"M  c #871434",
"N  c #921838",
"B  c #9D1B39",
"V  c #A6003C",
"C  c #882937",
"Z  c #8C3436",
"A  c #A92F3F",
"S  c #894A37",
"D  c #924038",
"F  c #89593D",
"G  c #90563D",
"H  c #89633F",
"J  c #B40142",
"K  c #BD0045",
"L  c #A31E44",
"P  c #B91044",
"I  c #932C46",
"U  c #873549",
"Y  c #AD2C41",
"T  c #B62344",
"R  c #AE3242",
"E  c #967245",
"W  c #AD704C",
"Q  c #B57D51",
"!  c #5F803D",
"~  c #69833E",
"^  c #578543",
"/  c #579249",
"(  c #5C875A",
")  c #559B54",
"_  c #589D54",
"`  c #749145",
"'  c #7D9146",
"]  c #76944D",
"[  c #7A9749",
"{  c #7D9C4B",
"}  c #648C58",
"|  c #758D5A",
" . c #56AA5D",
".. c #7EA153",
"X. c #548978",
"o. c #779367",
"O. c #59AF60",
"+. c #59B564",
"@. c #5BBA68",
"#. c #57C16C",
"$. c #59CB72",
"%. c #5BDB7D",
"&. c #918749",
"*. c #829D4D",
"=. c #8C994E",
"-. c #83A24E",
";. c #83A757",
":. c #8BAD54",
">. c #98AC57",
",. c #8EB056",
"<. c #8EB55E",
"1. c #91B457",
"2. c #92B558",
"3. c #95B95B",
"4. c #99BE5D",
"5. c #A3AD5A",
"6. c #A3B45C",
"7. c #96AB65",
"8. c #8EB661",
"9. c #97B965",
"0. c #8DB977",
"q. c #91BE77",
"w. c #AABD6B",
"e. c #9CC25F",
"r. c #9EC460",
"t. c #88D66D",
"y. c #90D96F",
"u. c #9FCA70",
"i. c #9AC87C",
"p. c #9DDD70",
"a. c #A0C761",
"s. c #A5CC64",
"d. c #A9D167",
"f. c #A4D76B",
"g. c #ACD569",
"h. c #A1CC71",
"j. c #8CE77C",
"k. c #9AE277",
"l. c #92E57B",
"z. c #DAEA7A",
"x. c #3B7E81",
"c. c #447E81",
"v. c #43888A",
"b. c #438F92",
"n. c #479497",
"m. c #49979A",
"M. c #79AC82",
"N. c #73AA88",
"B. c #74AC8C",
"V. c #65A797",
"C. c #4F9FA3",
"Z. c #4FA0A3",
"A. c #51A1A3",
"S. c #5AA3A2",
"D. c #52A5A9",
"F. c #54A9AD",
"G. c #56AEB1",
"H. c #57B0B3",
"J. c #59B3B7",
"K. c #5AB5B9",
"L. c #5CB9BD",
"P. c #75ADB0",
"I. c #79AFB2",
"U. c #5BE885",
"Y. c #5CF58D",
"T. c #82B789",
"R. c #8CB8BA",
"E. c #90BABC",
"W. c #84ED83",
"Q. c #88EB81",
"!. c #F1FF82",
"~. c #AAC8C9",
"^. c #B5CFD0",
"/. c #C1D5D7",
"(. c #CDDDDE",
"). c #DBE6E7",
"_. c #F8FAFA",
/* pixels */
"g.s.s.g.g.g.g.g.g.g.g.g.g.d.s.g.g.s.s.g.g.g.g.g.g.g.g.g.g.d.s.g.",
"g.3.2.e.s.g.g.g.g.g.g.d.q.M.V.S.S.V.N.0.s.g.g.g.g.g.g.s.r.3.3.g.",
"g.2.:.:.3.s.g.g.g.g.u.M.c n.J.A.C.C.Z.A.N.u.g.g.g.g.s.3.,.:.3.g.",
"g.4.:.H b =.d.g.g.u.N.v.C.G.F.C.C.C.C.C.C.B.h.g.g.d.3.:.:.:.4.g.",
"g.e.,.Z b F e.g.g.T.c.C.I.S.C.C.C.C.~.I.C.C.M.g.g.a.1.:.:.1.r.g.",
"g.g.e.:.C =.2.g.i.b.n.C.).R.C.C.C.C.^._.P.C.A.i.g.3.:.:.3.a.g.g.",
"g.g.g.d.- e.e.g.M.x.C.C.C.C.C.C.C.C.C././.C.g T.g.r.r.s.d.g.g.g.",
"g.s.s.d.- d.s.9.X.c.J.C.C.C.C.C.C.C.C.E.).A.b.X.9.s.g.g.s.4.3.g.",
"g.a.e.<.x ( i 4 g v.K.D.C.C.C.C.C.C.C.E.(.C.L.x.1 r ( ] ..:.2.g.",
"g.<.} i k 6 4 1 g v.L.J.D.C.C.C.C.C.C.C.C.F.G.x.3 3 3 3 6 ^ ;.g.",
"8.l q 8 4 4 3 3 a f K.J.F.C.C.C.C.C.C.C.C.D.D.c.1 3 3 1 3 3 i 2.",
"( p 8 8 !.w.4 e , d f G.L.H.C.C.C.C.C.C.C.b.f C e 3 w.z.3 3 3 z ",
"l 8 7 p 7.o.5 3 3 3 4 s a d x.m.C.m.b.x.s 5 3 3 3 3 | 7.3 1 3 k ",
"x u 8 p 9 q p 5 4 | r 3 3 M 3 4 3 1 b 3 1 r | 3 3 3 3 3 3 3 e x ",
"E , > t q 9 8 8 8 !.7.4 3 w 3 | | 3 3 3 3 7.!.3 3 3 3 3 2 >   E ",
"7.G v C < h w p 9 9 7 7 4 5 4 7.7.3 3 3 3 3 3 3 3 w h < C v G 6.",
"g.>.H Z v n N   h j y t t 0 6 8 q 0 y u u u j j I N v v Z &.6.g.",
"g.r.3.=.&.D B V n V V V n   U U U L J J K K K J V N S &.5.a.s.g.",
"g.g.s.4.{ o ' 5.E E A B B B m J J P T Y T R W Q w.*.o :.a.d.g.g.",
"g.s.s.s.% % e.g.g.e.6.*.- X . . . & * * ' a.a.g.g.s.% % g.s.s.g.",
"g.e.4.e.= e.g.g.g.g.g.d.-.~ * % * * : *.s.g.g.g.g.g.e.- e.2.3.g.",
"g.e.,.2.e.s.g.g.g.g.s.e.3.3.e.W.Q.3.:.:.3.s.g.g.g.g.s.3.,.:.2.g.",
"g.e.2.2.2.4.d.g.g.g.e.3.2.3.t.j.U.y.:.:.:.2.s.g.g.d.2.:.:.:.4.g.",
"g.e.4.,.2.2.e.g.g.e.4.2.3.e.y.l.k.y.,.:.:.:.r.g.g.e.:.:.:.1.e.g.",
"g.g.e.e.,.3.e.g.g.e.3.3.e.r.p.j.k.p.e.1.:.,.2.g.g.2.:.:.1.e.g.g.",
"g.g.g.g.s.e.e.g.f.r.e.d.f.g.f.k.k.p.f.d.s.e.e.f.g.e.e.s.g.g.g.g.",
"g.e.e.s.g.g.g.e.3.:.[ ` ~ $ / ) _ / ! ~ ` { :.2.a.g.g.g.s.e.e.g.",
"g.e.,.2.e.3.{ ~ @ @ + ^ ) #.$.%.%.$.O._ ^ @ @ @ ~ { 3.e.2.,.4.g.",
"g.e.1.1.2.~ $ @ @ @ + ) +.U.U.Y.Y.U.Y.@._ + @ @ @ # ~ 1.1.,.e.g.",
"g.e.2.2.2.-.[ ~ @ + O ! )  .+.@.@.+.O._ ! O @ @ ~ [ -.1.1.2.e.g.",
"g.g.e.2.2.2.3.e.2.[ ~ ~ * @ @ ; ; @ ; ; ~ [ { 3.e.e.2.1.2.e.s.g.",
"g.g.g.s.e.e.e.g.d.e.e.e.a.d.g.g.g.g.g.s.s.a.a.g.d.e.e.a.a.g.g.g."
};
