/* XPM */
static char *result[] = {
/* columns rows colors chars-per-pixel */
"32 32 122 2 ",
"   c #4F2E28",
".  c #54322C",
"X  c #442B3F",
"o  c #4D2F3C",
"O  c #5C3631",
"+  c #5F3932",
"@  c #53333B",
"#  c #5A363A",
"$  c #643B34",
"%  c #683F37",
"&  c #623B39",
"*  c #693F38",
"=  c #64403B",
"-  c #6D423A",
";  c #73463E",
":  c #76483F",
">  c #1C1943",
",  c #231B43",
"<  c #2A1E44",
"1  c #2E2044",
"2  c #342443",
"3  c #3A2745",
"4  c #3E2945",
"5  c #432C47",
"6  c #492E44",
"7  c #472E4A",
"8  c #4C3042",
"9  c #4F3248",
"0  c #523446",
"q  c #583641",
"w  c #5E3A42",
"e  c #5C3A4B",
"r  c #653E43",
"t  c #643E49",
"y  c #67404A",
"u  c #6A424E",
"i  c #744641",
"p  c #774840",
"a  c #7B4B42",
"s  c #794B49",
"d  c #6C4351",
"f  c #744954",
"g  c #7E4E52",
"h  c #814E45",
"j  c #835047",
"k  c #865249",
"l  c #8C564C",
"z  c #8F584E",
"x  c #91594F",
"c  c #8B5654",
"v  c #865A53",
"b  c #8F5851",
"n  c #835259",
"m  c #8D5858",
"M  c #955C51",
"N  c #995E54",
"B  c #925B58",
"V  c #9D6156",
"C  c #95625A",
"Z  c #9C6159",
"A  c #A4665A",
"S  c #A7685C",
"D  c #AB6A5E",
"F  c #94726C",
"G  c #887471",
"H  c #8B7876",
"J  c #957571",
"K  c #9F7973",
"L  c #947C79",
"P  c #AE6C61",
"I  c #B16E62",
"U  c #A77067",
"Y  c #B67164",
"T  c #B97366",
"R  c #BD7669",
"E  c #BD7B70",
"W  c #C57A6D",
"Q  c #CB7F71",
"!  c #A3837E",
"~  c #CE8173",
"^  c #D18375",
"/  c #D88778",
"(  c #DC8A7B",
")  c #E38E7F",
"_  c #9E908E",
"`  c #BB958F",
"'  c #AB9C9B",
"]  c #B8AFAE",
"[  c #E69081",
"{  c #ED9585",
"}  c #E29588",
"|  c #F09787",
" . c #F19887",
".. c #F59A8A",
"X. c #F99C8C",
"o. c #CCA39D",
"O. c #FEA08E",
"+. c #FFA593",
"@. c #FFAB99",
"#. c #FFB29F",
"$. c #CBB0AD",
"%. c #C4B7B6",
"&. c #CCBAB8",
"*. c #DCBFBB",
"=. c #FFB5A1",
"-. c #FFB8A5",
";. c #FFBAAB",
":. c #D2C5C3",
">. c #DDC4C1",
",. c #DCD5D4",
"<. c #FFD1C9",
"1. c #E4D5D3",
"2. c #E4D9D8",
"3. c #EADBDA",
"4. c #E4E0DF",
"5. c #FFE1DB",
"6. c #EBE6E5",
"7. c #EEECEB",
"8. c #F2ECEB",
"9. c #F5F4F3",
"0. c #F9F5F4",
"q. c #FDFDFC",
/* pixels */
"$ $ % $ $ % $ $ $ $ $ $ $ $ $ $ $ $ $ $ $ $ $ $ $ $ $ $ $ $ $ $ ",
"$ D D P D V % ; P P l i M z $ $ a x A D W ~ N $ - a x S D P P - ",
"$ I T I Y P a D d 1 > > < s + - I I D ^ ;.@.Q $ S A V I T I T * ",
"% N T I Y P - t > > > > > > 3 - T Y D D W W A $ P T D S T A T : ",
"; V D A A z $ 4 > > > > > > > @ I I S M N M h $ l A D S D S D - ",
"* a a a p - $ 1 > > > > > > > o h h $ O ; . . $ + ; h : h h h $ ",
"k M a ; ~ )  .1 > > > > > > , M l l * O $ h x A x N k % l x z x ",
"D D N ; ) ..+.n > > > > > > 5 I S S V * $ S I T W T N $ S D D P ",
"Y Y A : W Q Q W t > > > > , A I I I D = $ I T ( / -.S * Y T T T ",
"I Y A - M D S A V g > > 1 c N A S A l $ $ N D  .) | l - P T P I ",
"M M z % ; j r 6 < > > > > > 2 j k j - $ $ : l P D l * - x V x N ",
"$ l l l a 6 > > > > > > > > > > - : l j j h $ $ - ; : l l l l - ",
"$ S P D w > > > > > > > > > > > < V A O.) ..- $ l : x S D T R - ",
"% D T Z > > > > > > > > > > > > > , S ) ) +.l $ A x S D T ) O.- ",
"* V A > > > , , > > > > > > > > > > 5 A I ~ x $ A S D S Y ^ ) : ",
"- x < > > , # , > > > > > > > o < > > y l x : $ k x V x V N V - ",
"% w > > < k M , > > > > > > > i a > > , - J F k P ~ z p p p a $ ",
"$ < > < ..X.X.> > > > > > > > V M k 1 > + &.q.*.+.@.V $ _ 6.$ $ ",
"D u 9 p @.-.+.> > > > > > > > Y D P c 5 $ D 3.8.;.X.A G q.1.P P ",
"I P N ; R { T > > > > > > > > D I D A % + U ~ 8.7.I K 8.6.E Y Y ",
"D P V * l A N < > > > > > > > b A N j $ $ x A ` q.:.7.8.D I S D ",
"l V k $ % a ; , > > > < > > > r a : $ $ $ - a h %.q.9.L x N z z ",
"- | A M M z * > > > 7 ; > > > q Y ^ V x l l * $ :.q.8.} ) Q N p ",
"% =.W I Y D ; , > , d N , > > t +.=.T D D D : ] 0.<.0.5.#...T - ",
"% A T I Y D : > > > n I , > > 0 ../ P S Y Y ! q.>.[ $.q.o.D Y ; ",
"- N D S D V & > > > g P < > > # I Y S V V ` 9.,.V P D 2.9.U P ; ",
"- x z z l a X > > , N M 3 > > < N V x k v 7.4.* p z N C 9.,.N $ ",
"$ $ $ - h a 1 > > > ; $ 2 > > 2 6 ; - $ = ' j k j k : $ H ' $ $ ",
"N V l p B 5 < > > > M $ e , > 7 < 8 z .   A Y T T Y N $ N V N A ",
"T T A - m 3 1 2 > 3 N * I 7 > < > f I O . P T T T T V % I T T T ",
"Y Y S ; P Y Y Y I A x % M b z D I D A + . D Y Y Y Y h - Y T Y T ",
"A P V $ * M l k M N ; $ $ k z x x l $ $ $ : N N N k $ ; A I A A "
};
