/* XPM */
static char *result[] = {
/* columns rows colors chars-per-pixel */
"32 32 132 2 ",
"   c #0A2724",
".  c #0C2926",
"X  c #0D2E2A",
"o  c #0E312E",
"O  c #12322D",
"+  c #19352C",
"@  c #0F3330",
"#  c #143631",
"$  c #143A35",
"%  c #1A3C35",
"&  c #143D39",
"*  c #1C3E38",
"=  c #253F2F",
"-  c #17413C",
";  c #1B433C",
":  c #224236",
">  c #20463C",
",  c #25493D",
"<  c #2E4F3C",
"1  c #33533E",
"2  c #184540",
"3  c #184843",
"4  c #1B4F4A",
"5  c #1E514C",
"6  c #244F45",
"7  c #2D5546",
"8  c #23534B",
"9  c #2A564B",
"0  c #2D594B",
"q  c #335643",
"w  c #375E47",
"e  c #335D4B",
"r  c #225552",
"t  c #2E5B51",
"y  c #2D5E5A",
"u  c #335F55",
"i  c #3B6146",
"p  c #3C644D",
"a  c #346057",
"s  c #3A6453",
"d  c #35635A",
"f  c #39655B",
"g  c #2F6569",
"h  c #396965",
"j  c #326669",
"k  c #36696A",
"l  c #3A6B6A",
"z  c #40664C",
"x  c #456B4E",
"c  c #486E4F",
"v  c #4C714E",
"b  c #476E54",
"n  c #4D7351",
"m  c #507550",
"M  c #547951",
"N  c #587C51",
"B  c #567D5E",
"V  c #4B7666",
"C  c #4D7967",
"Z  c #447269",
"A  c #4D7A6C",
"S  c #527D68",
"D  c #4E7C73",
"F  c #4F7F79",
"G  c #6D8C37",
"H  c #64833B",
"J  c #6C8C39",
"K  c #74953C",
"L  c #5B8055",
"P  c #678444",
"I  c #668B54",
"U  c #698C54",
"Y  c #709251",
"T  c #7C9D51",
"R  c #70955E",
"E  c #7EA040",
"W  c #558069",
"Q  c #5F896B",
"!  c #548371",
"~  c #57897B",
"^  c #749D74",
"/  c #7AA477",
"(  c #7FAA78",
")  c #80A04F",
"_  c #83A453",
"`  c #86A956",
"'  c #8BAD54",
"]  c #81A559",
"[  c #8AAD59",
"{  c #8EB156",
"}  c #8DB25D",
"|  c #90B357",
" . c #92B659",
".. c #96BA5B",
"X. c #99BD5D",
"o. c #91B767",
"O. c #95BC64",
"+. c #86AE73",
"@. c #86B17B",
"#. c #9CC25F",
"$. c #A8D558",
"%. c #ACDB5A",
"&. c #B5E55F",
"*. c #9EC460",
"=. c #9BC46E",
"-. c #9FC86D",
";. c #99C47C",
":. c #A1C762",
">. c #A4CC64",
",. c #A5CE6F",
"<. c #A7D066",
"1. c #A9D167",
"2. c #A6D06F",
"3. c #ACD569",
"4. c #A5CF70",
"5. c #518687",
"6. c #568A86",
"7. c #5C8E84",
"8. c #568A88",
"9. c #598D88",
"0. c #5E9084",
"q. c #5F9788",
"w. c #639485",
"e. c #6A9A83",
"r. c #629A8C",
"t. c #67A295",
"y. c #6EAC9B",
"u. c #75B5A2",
"i. c #76BAA5",
"p. c #78BAA6",
"a. c #80C6B1",
"s. c #9CEFD4",
/* pixels */
"3.>.>.3.3.3.3.3.3.3.3.3.3.1.1.3.3.>.<.3.3.3.3.3.3.3.3.3.3.>.>.3.",
"3... .X.>.3.3.3.3.3.3.1.>.#.#.3.3... .#.<.1.3.3.3.3.3.<.O.X.X.3.",
"3. .' ' ..>.3.3.3.3.<.#.X.X.#.3.3. .' ' ..>.3.3.3.3.$.X.{ ' ..3.",
"3.X.' ' ' ..1.3.3.1.#.X.X.X.:.3.3. .' ' '  .1.3.3.1...' ' ' X.3.",
"3.#.| ' ' ' X.3.3.>.X.X.X.X.>.3.3.:.| ' ' ' *.1.3.#.| ' ' | *.3.",
"3.3.#.| ' '  .3.3.#.X.X.#.>.1.3.3.3.*.| ' '  .3.3...' { ..*.3.3.",
"3.3.3.1.>.#.#.3.3.>.>.<.1.3.3.3.3.3.3.<.:.#.#.3.3.#.#.>.1.3.3.3.",
"3.>.>.1.3.3.3.3.3.3.3.3.>.#.X.3.3.:.:.<.1.3.3.3.3.3.3.3.>.X.X.3.",
"3.:.*.:.>.3.3.3.3.3.1.#. .' ..3.3.X.X.X.>.3.3.1.3.3.1.#.{ ' { 3.",
"3.>.*.#.*.>.1.3.3.3.X.| ' { X.3.>._ U B A S R } >.3.X.' ' ' ..3.",
"3.>.:.#.*.:.<.3.3.>.| ' ' | *. .I b A D D D V S Q [ ' ' ' ' #.3.",
"3.1.:.:.*.*.:.3.3.X.' | } *.T x S t.a.a.A V r.r.D C Y ' { X.>.3.",
"3.<.b >.>.:.>.3.3.X.X.X.:.} p s p.s.u.~ A D r.t.V A x ] :.1.3.3.",
"3.L e u t u 0 u 0 u t u t u 0 A ~ p.F A A D D F D u 9 e :.>.>.3.",
"3.U % . . . . . . . * O % u 0 r.t.V D S S D D F Z u 7 # ] :.:.3.",
"3. .. ) ' *.3.3.3.1.X.) . 0 f D ! A D D D F y.p.r.t 9 + N #.:.3.",
"3.#.' ` [ { >.3.3.<.{ { o ; a q.7.A D D D 7.y.i.f a f > q *.:.3.",
"3.>.| { T T [ *.*.{ ` T - 0 8 a ~ F D D d a t u % # . O   X.1.3.",
"3.3...8 5 4 5 8 5 5 5 4 4 4 5 4 4 4 3 . . X   . . o X o & O.3.3.",
"3.} 0 9 v e z n c 5 p c 7 v N 0 9 M c 9 z < 2 1 1 < : = # 0 } 3.",
"3.0 5 i :.3.s *.>.m 1.*.p #.o.x x  .} s O.3.M >.>.p 3.*.e - 0 3.",
"M 4 e ` o.7.l l 0.4.-.0.k k 0.2.4.9.k j 6.=.;.9.g g 8.+.T , - N ",
"e 5 8 8 ^ y 4 4 y 0./ y 8 5 5 9.w.y p 8 4 5.8.4 p 8 4 5.8 6   e ",
"4 0 .. .V w &.J 5 j V 5 &.G 5 g l r $.E 4 j j 4 %.K 4 j ' { ; $ ",
"4 m *.[ V w K H 5 j A 8 G H 5 l j 5 H H 5 g g 4 H H 4 g ` #.= X ",
"7 0 n p e.h 4 5 5 ( w.9 5 5 5 @.w.y r 5 4 ( 5.4 5 5 4 8.a v O o ",
"3.5 p :.4.@.W S @.2.,.@.C C / -.-.( g g @.2.;.9.g g 8.;.*.q   P ",
"3.i 4 p *.>.I 3.3.M >...i [ { n n *.#.p #.>.M 3.3.I >.*.+ o : 3.",
"3.X.p 5 0 p v c c 5 p z 0 p p 0 0 p p p c x 5 c c v p 7 X + ' 3.",
"3.*.| 0 - & o o o X o X o o # @ o o o o o o o o o O O o - | #.3.",
"3.1.#...{ { ..>.1...{ { { | *.:.>.>.*.X.....#.<.<...' | ..#.1.3.",
"3.3.1.>.*.#.*.3.3.#...#.:.<.3.3.3.3.3.>.>.>.*.3.3.#.#.#.>.1.3.3."
};
