/* XPM */
static char *result[] = {
/* columns rows colors chars-per-pixel */
"32 32 130 2 ",
"   c #0A2724",
".  c #0C2A26",
"X  c #0D2E2A",
"o  c #0E312E",
"O  c #12322D",
"+  c #19352C",
"@  c #143631",
"#  c #143A35",
"$  c #1A3C35",
"%  c #133D39",
"&  c #1C3E38",
"*  c #243F2F",
"=  c #17413C",
"-  c #1C433C",
";  c #214236",
":  c #264A3D",
">  c #2D4E3C",
",  c #33533E",
"<  c #184843",
"1  c #1B4F4A",
"2  c #1E514C",
"3  c #255045",
"4  c #2D5546",
"5  c #23534B",
"6  c #2A564B",
"7  c #2D594C",
"8  c #375E47",
"9  c #335D4B",
"0  c #225552",
"q  c #2E5B51",
"w  c #2D5E5A",
"e  c #335F55",
"r  c #3B6146",
"t  c #3C644D",
"y  c #346057",
"u  c #396352",
"i  c #3E6856",
"p  c #35635A",
"a  c #39655B",
"s  c #2F6569",
"d  c #396965",
"f  c #326669",
"g  c #35696A",
"h  c #3A6B6A",
"j  c #40674D",
"k  c #466C4E",
"l  c #486E4F",
"z  c #4C714E",
"x  c #58794A",
"c  c #466D53",
"v  c #4D7351",
"b  c #527750",
"n  c #587C51",
"m  c #547B5D",
"M  c #477366",
"N  c #4C7867",
"B  c #447269",
"V  c #4D796C",
"C  c #517D65",
"Z  c #527D69",
"A  c #4E7C73",
"S  c #4F7F79",
"D  c #64833B",
"F  c #6C8C39",
"G  c #74953C",
"H  c #678444",
"J  c #648650",
"K  c #668B54",
"L  c #7B9D55",
"P  c #729659",
"I  c #7EA040",
"U  c #7DA157",
"Y  c #5F896B",
"T  c #548371",
"R  c #538478",
"E  c #57897B",
"W  c #6F9873",
"Q  c #749E75",
"!  c #7AA477",
"~  c #7FAA79",
"^  c #82A453",
"/  c #85A855",
"(  c #8BAC54",
")  c #81A65A",
"_  c #8AAE5A",
"`  c #8EB056",
"'  c #8CB15D",
"]  c #90B357",
"[  c #92B659",
"{  c #96BA5B",
"}  c #99BE5D",
"|  c #8AB064",
" . c #90B563",
".. c #96BC62",
"X. c #89B275",
"o. c #86B17B",
"O. c #9CC25F",
"+. c #A8D558",
"@. c #ACDB5A",
"#. c #B5E55F",
"$. c #9EC461",
"%. c #9CC46E",
"&. c #9FC86D",
"*. c #99C47C",
"=. c #A0C661",
"-. c #A4CC64",
";. c #A5CE6F",
":. c #A7D066",
">. c #A9D167",
",. c #A6D06F",
"<. c #ACD569",
"1. c #A5CF70",
"2. c #A6D070",
"3. c #528787",
"4. c #568A86",
"5. c #5B8E84",
"6. c #598D88",
"7. c #5E9084",
"8. c #5F9788",
"9. c #639385",
"0. c #6A9983",
"q. c #629A8C",
"w. c #67A295",
"e. c #6AA594",
"r. c #6EAC9B",
"t. c #75B5A2",
"y. c #76BAA5",
"u. c #78BAA6",
"i. c #80C6B1",
"p. c #9CEFD4",
/* pixels */
"<.-.-.<.<.<.<.<.<.<.<.<.<.:.:.<.<.-.>.>.<.<.<.<.<.<.<.<.<.:.-.<.",
"<.{ [ O.-.<.<.<.<.<.<.<.-.O.O.<.<.{ [ O.-.<.<.<.<.<.<.>.O.{ { <.",
"<.[ ( ( [ -.<.<.<.<.:.O.} } } <.<.] ( ( { -.<.<.<.<.-.{ ] ( { <.",
"<.} ( ( ( [ <.<.<.<.O.} } } -.<.<.} ( ( ( [ >.<.<.>.{ ( ( ` { <.",
"<.O.( ( ( ( O.<.<.-.} } } } -.<.<.O.] ( ( ( O.<.@.O.` ( ( ] =.<.",
"<.<.$.] ( ( [ <.<.} } } } -.<.<.<.<.O.] ( ( [ <.<.{ ( ` [ =.<.<.",
"<.<.<.>.-.O.O.<.<.-.-.:.<.<.<.<.<.<.<.>.-.O.O.<.<.=.=.-.<.<.<.<.",
"<.-.-.<.<.<.<.<.<.<.<.<.:.} } <.<.O.=.<.<.<.<.<.<.<.<.>.-.} { <.",
"<.$.$.$.-.<.<.<.<.<.>.$.] ( { <.<.} { } =.<.<.<.<.<.<.} ` ( ] <.",
"<.-.$.$.$.-.<.=.| P Z V m J L -.<.=.} } { =.<.<.<.<.} ( ( ( { <.",
"<.-.$.=.$.$._ Y V N A A A V v J [ =.} { } } -.<.<.=.( ( ( ` O.<.",
"<.>.-.$.=.U N S q.q.N N i.i.e.C l ) =.} { { =.<.<.{ ( ( ( { >.<.",
"<.<.<.>.( k V M w.q.A V R t.p.i.e j ' -.=.O.=.>.<.} } O.=.c -.<.",
"<.O.$.O.9 6 u A A A A N A A u.E Z 7 q e q q e q e q q q 9 q n <.",
"<.[ ( L O 6 p B S A A Z A A N e.q.q q & + & . .   . . . . + P <.",
"<.{ ( x O 6 q 8.i.r.A A A A N A A a 4 . ^ } >.<.<.<.-.O...O =.<.",
"<.{ ( 4 - p y i y.r.6.T A A A 5.9.e - O ] [ -.<.<.>.$.$.$.O.-.<.",
"<.-.( . O . @ = y 7 y p A A A E p 6 6 & / / [ $.$. .` ` ..$.:.<.",
"<.<.{ % o o o . . . . .   < 2 2 1 1 1 1 1 1 1 1 5 2 1 2 6 ..<.<.",
"<.' 7 @ * ; > , , = > k 5 c n 6 7 n l 7 k t 5 c v c 9 b 6 7 ' <.",
"<.9 = 9 $.<.t :.-.b >.%.i ....k k | ] j $.,.n -.-.u <.-.9 1 7 <.",
"n = : U X.4.s s 6.*.%.4.h g 7.2.1.5.g g 5.%.1.5.h h 7.| ^ 9 1 n ",
"9 . 3 5 3.2 2 t 2 4.3.1 5 t w 9.4.5 1 5 q Q 9.w 1 1 q W 5 6 1 9 ",
"# ; [ [ s 1 G @.1 s f 1 I +.2 h f 1 F #.5 B f 1 F #.r M ( ` 7 1 ",
"o * $./ s 1 D D 1 s s 1 D D 2 g h 2 D F 5 V f 2 D G 8 M / $.b 1 ",
"O O z r 6.2 1 1 2 4.~ 1 2 0 w 9.o.1 2 1 0 9.! 2 1 1 d 0.9 b 7 6 ",
"H . 4 -.*.6.s s 6.*.;.o.f s ! &.&.~ C Z o.,.,.o.Z Z o.1.-.9 5 >.",
"<.; o + O.&.K >.<.b -.{ u ( ` z v O.} t O.:.b <.<.K -.$.t 1 u <.",
"<.` O . 7 t z l k 2 k t 7 t t 7 7 t t u k k 2 k k z t 7 2 t { <.",
"<.O.[ $ o o o o o o o o o O o o o @ O o X X o X o o # - 7 [ =.<.",
"<.>.O.[ ` ` { :.:.[ ( ( ( { =.-.-.O.O.O.O.O.O.<.:.{ ` ] [ O.:.<.",
"<.<.<.:.O.O.O.<.<.O.{ O.=.:.<.<.<.<.<.-.-.O.-.<.<.O.O.$.-.>.<.<."
};
