/* XPM */
static char *result[] = {
/* columns rows colors chars-per-pixel */
"32 32 6 1 ",
"  c #343535",
". c #333A3B",
"X c #3A3B3B",
"o c #484A4A",
"O c #575959",
"+ c #00BCD4",
/* pixels */
"+++++++++++++ XXXXoo +++++++++++",
"+++++++++++XXXX   o   ++++++++++",
"++++++++++   XXX XXX XXXX+++++++",
"++++++++Xo  oXXXXXXXXXXXXo.+++++",
"++++++XXXo   XXooooXXX   oX  +++",
"++++ XXXoooX XXXooXXXX   XXXO  +",
"+++ oooXXXXXXXXXXXXXXXX XXXXoX +",
"++  XoOXXXXXXXXXXXXXXXXXXXXXoo +",
"++XXXXXXX XXXXXXXXXXXXXXXXXXoX +",
"+ XXXXXXX XXXXXXX  XXXXXXXXXXX  ",
"  XXXXXX  XXXXXXXo XXXXXXXXXXXX ",
"  XXXXXX   oXXXXoo XXXXXXXXXXXXX",
"  XXXXXX  OoXXXXo XXXXXXXXXXX XX",
" XXXXXXXXXOXXXXX  XXXoXOXXXX   X",
"XXXXXXXXXXOoXXXX XXXXoooXXXX  XX",
"XXXXXXXXXXOOXXXX XXXooooXXX   XX",
"XXXXXXXXXXOOOXXXXXXXXOOOXXXX  XX",
"XXXXXXXXXX OXXXXXXXXXXOOXXXXXXXX",
"XXXXXXXXXXOOXXXXXXXXXXXOXXXXXXXX",
"XXXXXoXXXXOOXXXXXXXXXXXOXXX XXXX",
"XXXXXOXXXXOoXXXXXXXXXXOOXXX XXXX",
"XXXXoOXXXXoXXXXXXXXXXXOoXX  XXXX",
"XXXXOOXXX o XXXXXXXXXXoXXX  XXXX",
"XXXXOOXXX   XXXXXXXXXXXXXo  XXXX",
"XXXXOoXXX XXXXXXXXXXXXXXX   XXXX",
"XXXXoXXXXXXXXXXXXXXXXXXXX   XXXX",
"oXXXoXXXXXXXXXXXXXXXXXXXXX XXXXX",
" oXXXXXXXXXXXXXX  XXXXXXXXXXXXX ",
" oXXXXXXXXXXXXXX  XXXXXXXXXXXXX ",
"  oXXXXXXXXXXXXoo  XXXXXXXXXXX  ",
"   oXXXXXXXXXXoo   XXXXXXXXXX   ",
"    XXXXXXXXXoo    XXXXXXXXXX   "
};
