/* XPM */
static char *_6dc446119dd409ccbd136becfab46d50ISbhkq4oJHGLr7y[] = {
/* columns rows colors chars-per-pixel */
"32 32 5 1 ",
"  c None",
". c #343535",
"X c #3A3B3B",
"o c #484A4A",
"O c #575959",
/* pixels */
"             .XXXXoo.           ",
"           XXXX...o...          ",
"          ...XXX.XXX.XXXX       ",
"        Xo..oXXXXXXXXXXXXoo.    ",
"      XXXo...XXooooXXX...oX...  ",
"    .XXXoooX.XXXooXXXX...XXXO.. ",
"   .oooXXXXXXXXXXXXXXXX.XXXXoX. ",
"  ..XoOXXXXXXXXXXXXXXXXXXXXXoo. ",
"  XXXXXXX.XXXXXXXXXXXXXXXXXXoX. ",
" .XXXXXXX.XXXXXXX..XXXXXXXXXXX..",
"..XXXXXX..XXXXXXXo.XXXXXXXXXXXX.",
"..XXXXXX...oXXXXoo.XXXXXXXXXXXXX",
"..XXXXXX..OoXXXXo.XXXXXXXXXXX.XX",
".XXXXXXXXXOXXXXX..XXXoXOXXXX...X",
"XXXXXXXXXXOoXXXX.XXXXoooXXXX..XX",
"XXXXXXXXXXOOXXXX.XXXooooXXX...XX",
"XXXXXXXXXXOOOXXXXXXXXOOOXXXX..XX",
"XXXXXXXXXX.OXXXXXXXXXXOOXXXXXXXX",
"XXXXXXXXXXOOXXXXXXXXXXXOXXXXXXXX",
"XXXXXoXXXXOOXXXXXXXXXXXOXXX.XXXX",
"XXXXXOXXXXOoXXXXXXXXXXOOXXX.XXXX",
"XXXXoOXXXXoXXXXXXXXXXXOoXX..XXXX",
"XXXXOOXXX.o.XXXXXXXXXXoXXX..XXXX",
"XXXXOOXXX...XXXXXXXXXXXXXo..XXXX",
"XXXXOoXXX.XXXXXXXXXXXXXXX...XXXX",
"XXXXoXXXXXXXXXXXXXXXXXXXX...XXXX",
"oXXXoXXXXXXXXXXXXXXXXXXXXX.XXXXX",
".oXXXXXXXXXXXXXX..XXXXXXXXXXXXX.",
".oXXXXXXXXXXXXXX..XXXXXXXXXXXXX.",
"..oXXXXXXXXXXXXoo..XXXXXXXXXXX..",
"...oXXXXXXXXXXoo...XXXXXXXXXX...",
"....XXXXXXXXXoo....XXXXXXXXXX..."
};
