/* XPM */
static char *c0e8e9b20694490eedc8d4083db55570y8PmoUowNA8d2Yu2[] = {
/* columns rows colors chars-per-pixel */
"32 32 67 1 ",
"  c #4F2E28",
". c #55322C",
"X c #5A362F",
"o c #5D3731",
"O c #5F3932",
"+ c #643C34",
"@ c #683F37",
"# c #693F38",
"$ c #6C4139",
"% c #73463E",
"& c #76483F",
"* c #774840",
"= c #7C4B43",
"- c #814E45",
"; c #835047",
": c #865249",
"> c #8B564C",
", c #8F584E",
"< c #91594F",
"1 c #955C51",
"2 c #995E54",
"3 c #9D6156",
"4 c #A3655A",
"5 c #A7685C",
"6 c #AB6A5E",
"7 c #AE6C60",
"8 c #B16E62",
"9 c #B57164",
"0 c #B97366",
"q c #BD7669",
"w c #C0776A",
"e c #C47A6D",
"r c #C97E70",
"t c #CC7F71",
"y c #CD8072",
"u c #CE8173",
"i c #D28375",
"p c #D88778",
"a c #DD8A7B",
"s c #DE8B7C",
"d c #E18D7E",
"f c #E48F7F",
"g c #E58F80",
"h c #E69081",
"j c #E99283",
"k c #ED9585",
"l c #EE9585",
"z c #EF9686",
"x c #F19787",
"c c #F19887",
"v c #F39988",
"b c #F49989",
"n c #F69A8A",
"m c #F69B8A",
"M c #F79B8B",
"N c #F99D8C",
"B c #FFA492",
"V c #FFA493",
"C c #FFA694",
"Z c #FFAB99",
"A c #FFAC99",
"S c #FFAC9A",
"D c #FFB3A0",
"F c #FFB5A1",
"G c #FFBBA7",
"H c #FFBCA8",
"J c #FFC8B3",
/* pixels */
"+++@+@++++O+++++O+++++++++++O++O",
"+66763@%76>%1,++=156eu2+$=16778@",
"+80806=6ZGJ74,+$886uHZr+7538080@",
"@20807$6JDu031+$0876ee4+7874050*",
"%4544>@:jw8741++885221-+>474757#",
"@===&$+$:=-==%++--oo%..+o%-*==-+",
":1=&ugv01::@=433>>@o+=1412>+><,1",
"461*dvBr732+3008454@+580q02+5766",
"004*etiq842+3560086@+70spH4@8000",
"885$165554>+;11444>++36cjz>%8q78",
"11>@&:=-->%+$==::;$@+*:87>@#1311",
"+>>>&*X@@*%@==+.$=::;=++@$=>>>>@",
"+565-:@eC7211>+o135Ngb$+:&1570q@",
"@50844&bZq8731+$887zdB:#5<470gN%",
"#38774#ew80841+@08660t>+46748ug&",
"%<221-@=13331>++342>>>=+;131323$",
"@&&=:>1=;::$$===::=%$=;>8r>*=*=+",
"+++%bNN33,>.$;5411;@+15qBC3+++++",
"682&SHB0831.,580664@+60eBN4@6768",
"005&0z09941O2447875@+50088>$8000",
"563@,43333=@=>,332;@+,4542%$6856",
">4>+@=&%-:$++=*===+++$=-=*#*<2>>",
"$x4<1:$=26,&;=+&9i2<>:@+;qwggr4*",
"@De805%qgvu23,+1BF0676&+8ZNSDb0#",
"@50606&qrbs931+:bp7680:+0g47060%",
"$18563@>398731+@885244>+3773747%",
"%,>,:=@%:1111:@@221;-=*@*>2,111+",
"+++$-;;==**+=6,8==$++=;;;:*+++++",
"13:*8315611+7DpG44>. 400001+1323",
"0q5%0218043@0z0r888X.700003@90qq",
"005%709874,@,117874O.69080-$0q00",
"563+@1>:12%++>>,1>++O=131:+$5834"
};
